%TF.GenerationSoftware,KiCad,Pcbnew,8.0.3*%
%TF.CreationDate,2024-06-28T16:22:58-06:00*%
%TF.ProjectId,Sensor,53656e73-6f72-42e6-9b69-6361645f7063,rev?*%
%TF.SameCoordinates,Original*%
%TF.FileFunction,Legend,Bot*%
%TF.FilePolarity,Positive*%
%FSLAX46Y46*%
G04 Gerber Fmt 4.6, Leading zero omitted, Abs format (unit mm)*
G04 Created by KiCad (PCBNEW 8.0.3) date 2024-06-28 16:22:58*
%MOMM*%
%LPD*%
G01*
G04 APERTURE LIST*
%ADD10C,0.300000*%
G04 APERTURE END LIST*
D10*
X145525400Y-91923082D02*
X145596828Y-92137368D01*
X145596828Y-92137368D02*
X145596828Y-92494510D01*
X145596828Y-92494510D02*
X145525400Y-92637368D01*
X145525400Y-92637368D02*
X145453971Y-92708796D01*
X145453971Y-92708796D02*
X145311114Y-92780225D01*
X145311114Y-92780225D02*
X145168257Y-92780225D01*
X145168257Y-92780225D02*
X145025400Y-92708796D01*
X145025400Y-92708796D02*
X144953971Y-92637368D01*
X144953971Y-92637368D02*
X144882542Y-92494510D01*
X144882542Y-92494510D02*
X144811114Y-92208796D01*
X144811114Y-92208796D02*
X144739685Y-92065939D01*
X144739685Y-92065939D02*
X144668257Y-91994510D01*
X144668257Y-91994510D02*
X144525400Y-91923082D01*
X144525400Y-91923082D02*
X144382542Y-91923082D01*
X144382542Y-91923082D02*
X144239685Y-91994510D01*
X144239685Y-91994510D02*
X144168257Y-92065939D01*
X144168257Y-92065939D02*
X144096828Y-92208796D01*
X144096828Y-92208796D02*
X144096828Y-92565939D01*
X144096828Y-92565939D02*
X144168257Y-92780225D01*
X144811114Y-93423081D02*
X144811114Y-93923081D01*
X145596828Y-94137367D02*
X145596828Y-93423081D01*
X145596828Y-93423081D02*
X144096828Y-93423081D01*
X144096828Y-93423081D02*
X144096828Y-94137367D01*
X145596828Y-94780224D02*
X144096828Y-94780224D01*
X144096828Y-94780224D02*
X145596828Y-95637367D01*
X145596828Y-95637367D02*
X144096828Y-95637367D01*
X145525400Y-96280225D02*
X145596828Y-96494511D01*
X145596828Y-96494511D02*
X145596828Y-96851653D01*
X145596828Y-96851653D02*
X145525400Y-96994511D01*
X145525400Y-96994511D02*
X145453971Y-97065939D01*
X145453971Y-97065939D02*
X145311114Y-97137368D01*
X145311114Y-97137368D02*
X145168257Y-97137368D01*
X145168257Y-97137368D02*
X145025400Y-97065939D01*
X145025400Y-97065939D02*
X144953971Y-96994511D01*
X144953971Y-96994511D02*
X144882542Y-96851653D01*
X144882542Y-96851653D02*
X144811114Y-96565939D01*
X144811114Y-96565939D02*
X144739685Y-96423082D01*
X144739685Y-96423082D02*
X144668257Y-96351653D01*
X144668257Y-96351653D02*
X144525400Y-96280225D01*
X144525400Y-96280225D02*
X144382542Y-96280225D01*
X144382542Y-96280225D02*
X144239685Y-96351653D01*
X144239685Y-96351653D02*
X144168257Y-96423082D01*
X144168257Y-96423082D02*
X144096828Y-96565939D01*
X144096828Y-96565939D02*
X144096828Y-96923082D01*
X144096828Y-96923082D02*
X144168257Y-97137368D01*
X144096828Y-98065939D02*
X144096828Y-98351653D01*
X144096828Y-98351653D02*
X144168257Y-98494510D01*
X144168257Y-98494510D02*
X144311114Y-98637367D01*
X144311114Y-98637367D02*
X144596828Y-98708796D01*
X144596828Y-98708796D02*
X145096828Y-98708796D01*
X145096828Y-98708796D02*
X145382542Y-98637367D01*
X145382542Y-98637367D02*
X145525400Y-98494510D01*
X145525400Y-98494510D02*
X145596828Y-98351653D01*
X145596828Y-98351653D02*
X145596828Y-98065939D01*
X145596828Y-98065939D02*
X145525400Y-97923082D01*
X145525400Y-97923082D02*
X145382542Y-97780224D01*
X145382542Y-97780224D02*
X145096828Y-97708796D01*
X145096828Y-97708796D02*
X144596828Y-97708796D01*
X144596828Y-97708796D02*
X144311114Y-97780224D01*
X144311114Y-97780224D02*
X144168257Y-97923082D01*
X144168257Y-97923082D02*
X144096828Y-98065939D01*
X145596828Y-100208796D02*
X144882542Y-99708796D01*
X145596828Y-99351653D02*
X144096828Y-99351653D01*
X144096828Y-99351653D02*
X144096828Y-99923082D01*
X144096828Y-99923082D02*
X144168257Y-100065939D01*
X144168257Y-100065939D02*
X144239685Y-100137368D01*
X144239685Y-100137368D02*
X144382542Y-100208796D01*
X144382542Y-100208796D02*
X144596828Y-100208796D01*
X144596828Y-100208796D02*
X144739685Y-100137368D01*
X144739685Y-100137368D02*
X144811114Y-100065939D01*
X144811114Y-100065939D02*
X144882542Y-99923082D01*
X144882542Y-99923082D02*
X144882542Y-99351653D01*
X141556828Y-92708796D02*
X141556828Y-91994510D01*
X141556828Y-91994510D02*
X142271114Y-91923082D01*
X142271114Y-91923082D02*
X142199685Y-91994510D01*
X142199685Y-91994510D02*
X142128257Y-92137368D01*
X142128257Y-92137368D02*
X142128257Y-92494510D01*
X142128257Y-92494510D02*
X142199685Y-92637368D01*
X142199685Y-92637368D02*
X142271114Y-92708796D01*
X142271114Y-92708796D02*
X142413971Y-92780225D01*
X142413971Y-92780225D02*
X142771114Y-92780225D01*
X142771114Y-92780225D02*
X142913971Y-92708796D01*
X142913971Y-92708796D02*
X142985400Y-92637368D01*
X142985400Y-92637368D02*
X143056828Y-92494510D01*
X143056828Y-92494510D02*
X143056828Y-92137368D01*
X143056828Y-92137368D02*
X142985400Y-91994510D01*
X142985400Y-91994510D02*
X142913971Y-91923082D01*
X141556828Y-93208796D02*
X143056828Y-93708796D01*
X143056828Y-93708796D02*
X141556828Y-94208796D01*
X142485400Y-94708795D02*
X142485400Y-95851653D01*
X143056828Y-95280224D02*
X141913971Y-95280224D01*
X138834257Y-92780225D02*
X138762828Y-92637368D01*
X138762828Y-92637368D02*
X138762828Y-92423082D01*
X138762828Y-92423082D02*
X138834257Y-92208796D01*
X138834257Y-92208796D02*
X138977114Y-92065939D01*
X138977114Y-92065939D02*
X139119971Y-91994510D01*
X139119971Y-91994510D02*
X139405685Y-91923082D01*
X139405685Y-91923082D02*
X139619971Y-91923082D01*
X139619971Y-91923082D02*
X139905685Y-91994510D01*
X139905685Y-91994510D02*
X140048542Y-92065939D01*
X140048542Y-92065939D02*
X140191400Y-92208796D01*
X140191400Y-92208796D02*
X140262828Y-92423082D01*
X140262828Y-92423082D02*
X140262828Y-92565939D01*
X140262828Y-92565939D02*
X140191400Y-92780225D01*
X140191400Y-92780225D02*
X140119971Y-92851653D01*
X140119971Y-92851653D02*
X139619971Y-92851653D01*
X139619971Y-92851653D02*
X139619971Y-92565939D01*
X140262828Y-93494510D02*
X138762828Y-93494510D01*
X138762828Y-93494510D02*
X140262828Y-94351653D01*
X140262828Y-94351653D02*
X138762828Y-94351653D01*
X140262828Y-95065939D02*
X138762828Y-95065939D01*
X138762828Y-95065939D02*
X138762828Y-95423082D01*
X138762828Y-95423082D02*
X138834257Y-95637368D01*
X138834257Y-95637368D02*
X138977114Y-95780225D01*
X138977114Y-95780225D02*
X139119971Y-95851654D01*
X139119971Y-95851654D02*
X139405685Y-95923082D01*
X139405685Y-95923082D02*
X139619971Y-95923082D01*
X139619971Y-95923082D02*
X139905685Y-95851654D01*
X139905685Y-95851654D02*
X140048542Y-95780225D01*
X140048542Y-95780225D02*
X140191400Y-95637368D01*
X140191400Y-95637368D02*
X140262828Y-95423082D01*
X140262828Y-95423082D02*
X140262828Y-95065939D01*
M02*
