%TF.GenerationSoftware,KiCad,Pcbnew,8.0.3*%
%TF.CreationDate,2024-06-28T16:22:58-06:00*%
%TF.ProjectId,Sensor,53656e73-6f72-42e6-9b69-6361645f7063,rev?*%
%TF.SameCoordinates,Original*%
%TF.FileFunction,Copper,L1,Top*%
%TF.FilePolarity,Positive*%
%FSLAX46Y46*%
G04 Gerber Fmt 4.6, Leading zero omitted, Abs format (unit mm)*
G04 Created by KiCad (PCBNEW 8.0.3) date 2024-06-28 16:22:58*
%MOMM*%
%LPD*%
G01*
G04 APERTURE LIST*
G04 Aperture macros list*
%AMRoundRect*
0 Rectangle with rounded corners*
0 $1 Rounding radius*
0 $2 $3 $4 $5 $6 $7 $8 $9 X,Y pos of 4 corners*
0 Add a 4 corners polygon primitive as box body*
4,1,4,$2,$3,$4,$5,$6,$7,$8,$9,$2,$3,0*
0 Add four circle primitives for the rounded corners*
1,1,$1+$1,$2,$3*
1,1,$1+$1,$4,$5*
1,1,$1+$1,$6,$7*
1,1,$1+$1,$8,$9*
0 Add four rect primitives between the rounded corners*
20,1,$1+$1,$2,$3,$4,$5,0*
20,1,$1+$1,$4,$5,$6,$7,0*
20,1,$1+$1,$6,$7,$8,$9,0*
20,1,$1+$1,$8,$9,$2,$3,0*%
G04 Aperture macros list end*
%TA.AperFunction,ComponentPad*%
%ADD10R,1.700000X1.700000*%
%TD*%
%TA.AperFunction,ComponentPad*%
%ADD11O,1.700000X1.700000*%
%TD*%
%TA.AperFunction,ComponentPad*%
%ADD12C,1.500000*%
%TD*%
%TA.AperFunction,SMDPad,CuDef*%
%ADD13RoundRect,0.250000X-0.625000X0.400000X-0.625000X-0.400000X0.625000X-0.400000X0.625000X0.400000X0*%
%TD*%
%TA.AperFunction,ViaPad*%
%ADD14C,0.600000*%
%TD*%
%TA.AperFunction,Conductor*%
%ADD15C,0.400000*%
%TD*%
G04 APERTURE END LIST*
D10*
%TO.P,J1,1,Pin_1*%
%TO.N,Net-(J1-Pin_1)*%
X139700000Y-89662000D03*
D11*
%TO.P,J1,2,Pin_2*%
%TO.N,Net-(J1-Pin_2)*%
X142240000Y-89662000D03*
%TO.P,J1,3,Pin_3*%
%TO.N,Net-(J1-Pin_3)*%
X144780000Y-89662000D03*
%TD*%
D12*
%TO.P,OPT1,1,E+*%
%TO.N,Net-(O1-E+)*%
X153737000Y-95247889D03*
%TO.P,OPT1,2,E-*%
%TO.N,Net-(J1-Pin_1)*%
X151197000Y-95247889D03*
%TO.P,OPT1,3,D+*%
%TO.N,Net-(J1-Pin_3)*%
X151197000Y-102867889D03*
%TO.P,OPT1,4,D-*%
%TO.N,Net-(J1-Pin_1)*%
X153737000Y-102867889D03*
%TD*%
D13*
%TO.P,10K\u03A9,1*%
%TO.N,Net-(J1-Pin_2)*%
X142240000Y-93674000D03*
%TO.P,10K\u03A9,2*%
%TO.N,Net-(O1-E+)*%
X142240000Y-96774000D03*
%TD*%
%TO.P,220\u03A9,1*%
%TO.N,Net-(J1-Pin_2)*%
X144780000Y-93674000D03*
%TO.P,220\u03A9,2*%
%TO.N,Net-(J1-Pin_3)*%
X144780000Y-96774000D03*
%TD*%
D14*
%TO.N,Net-(J1-Pin_3)*%
X144780000Y-96774000D03*
%TO.N,Net-(O1-E+)*%
X142240000Y-96774000D03*
%TD*%
D15*
%TO.N,Net-(J1-Pin_2)*%
X142240000Y-93674000D02*
X144780000Y-93674000D01*
X142240000Y-93674000D02*
X142240000Y-89662000D01*
%TO.N,Net-(J1-Pin_1)*%
X141480111Y-95247889D02*
X151197000Y-95247889D01*
X141478000Y-95250000D02*
X141480111Y-95247889D01*
X151197000Y-98365000D02*
X151197000Y-95247889D01*
X139700000Y-93726000D02*
X141224000Y-95250000D01*
X153737000Y-100905000D02*
X151197000Y-98365000D01*
X139700000Y-89662000D02*
X139700000Y-93726000D01*
X153737000Y-102867889D02*
X153737000Y-100905000D01*
X141224000Y-95250000D02*
X141478000Y-95250000D01*
%TO.N,Net-(J1-Pin_3)*%
X144780000Y-99314000D02*
X148333889Y-102867889D01*
X144780000Y-96774000D02*
X144780000Y-99314000D01*
X148333889Y-102867889D02*
X151197000Y-102867889D01*
%TD*%
%TA.AperFunction,NonConductor*%
G36*
X155906539Y-87080185D02*
G01*
X155952294Y-87132989D01*
X155963500Y-87184500D01*
X155963500Y-110935500D01*
X155943815Y-111002539D01*
X155891011Y-111048294D01*
X155839500Y-111059500D01*
X137088500Y-111059500D01*
X137021461Y-111039815D01*
X136975706Y-110987011D01*
X136964500Y-110935500D01*
X136964500Y-108553893D01*
X150454920Y-108553893D01*
X150454920Y-108553896D01*
X150475334Y-108839328D01*
X150536158Y-109118932D01*
X150636165Y-109387061D01*
X150773300Y-109638204D01*
X150773305Y-109638212D01*
X150944784Y-109867282D01*
X150944800Y-109867300D01*
X151147124Y-110069624D01*
X151147142Y-110069640D01*
X151376212Y-110241119D01*
X151376220Y-110241124D01*
X151627363Y-110378259D01*
X151627362Y-110378259D01*
X151627366Y-110378260D01*
X151627369Y-110378262D01*
X151895484Y-110478264D01*
X151895490Y-110478265D01*
X151895492Y-110478266D01*
X152175096Y-110539090D01*
X152175098Y-110539090D01*
X152175102Y-110539091D01*
X152428750Y-110557232D01*
X152460529Y-110559505D01*
X152460530Y-110559505D01*
X152460531Y-110559505D01*
X152489125Y-110557459D01*
X152745958Y-110539091D01*
X153025576Y-110478264D01*
X153293691Y-110378262D01*
X153544845Y-110241121D01*
X153773925Y-110069634D01*
X153976269Y-109867290D01*
X154147756Y-109638210D01*
X154284897Y-109387056D01*
X154384899Y-109118941D01*
X154445726Y-108839323D01*
X154466140Y-108553895D01*
X154445726Y-108268467D01*
X154384899Y-107988849D01*
X154284897Y-107720734D01*
X154204555Y-107573600D01*
X154147759Y-107469585D01*
X154147754Y-107469577D01*
X153976275Y-107240507D01*
X153976259Y-107240489D01*
X153773935Y-107038165D01*
X153773917Y-107038149D01*
X153544847Y-106866670D01*
X153544839Y-106866665D01*
X153293696Y-106729530D01*
X153293697Y-106729530D01*
X153186445Y-106689527D01*
X153025576Y-106629526D01*
X153025573Y-106629525D01*
X153025567Y-106629523D01*
X152745963Y-106568699D01*
X152460531Y-106548285D01*
X152460529Y-106548285D01*
X152175096Y-106568699D01*
X151895492Y-106629523D01*
X151627363Y-106729530D01*
X151376220Y-106866665D01*
X151376212Y-106866670D01*
X151147142Y-107038149D01*
X151147124Y-107038165D01*
X150944800Y-107240489D01*
X150944784Y-107240507D01*
X150773305Y-107469577D01*
X150773300Y-107469585D01*
X150636165Y-107720728D01*
X150536158Y-107988857D01*
X150475334Y-108268461D01*
X150454920Y-108553893D01*
X136964500Y-108553893D01*
X136964500Y-105155996D01*
X140250415Y-105155996D01*
X140250415Y-105156003D01*
X140270738Y-105504927D01*
X140270739Y-105504938D01*
X140331428Y-105849127D01*
X140331430Y-105849134D01*
X140431674Y-106183972D01*
X140570107Y-106504895D01*
X140570113Y-106504908D01*
X140744870Y-106807597D01*
X140953584Y-107087949D01*
X140953589Y-107087955D01*
X140998114Y-107135148D01*
X141193442Y-107342183D01*
X141345265Y-107469577D01*
X141461186Y-107566847D01*
X141461194Y-107566853D01*
X141753203Y-107758911D01*
X141753207Y-107758913D01*
X142065549Y-107915777D01*
X142393989Y-108035319D01*
X142734086Y-108115923D01*
X143081241Y-108156500D01*
X143081248Y-108156500D01*
X143430752Y-108156500D01*
X143430759Y-108156500D01*
X143777914Y-108115923D01*
X144118011Y-108035319D01*
X144446451Y-107915777D01*
X144758793Y-107758913D01*
X145050811Y-107566849D01*
X145318558Y-107342183D01*
X145558412Y-107087953D01*
X145767130Y-106807596D01*
X145941889Y-106504904D01*
X146080326Y-106183971D01*
X146180569Y-105849136D01*
X146241262Y-105504927D01*
X146261585Y-105156000D01*
X146241262Y-104807073D01*
X146241260Y-104807061D01*
X146180571Y-104462872D01*
X146180569Y-104462865D01*
X146080325Y-104128027D01*
X146057447Y-104074989D01*
X145941889Y-103807096D01*
X145788530Y-103541470D01*
X145767129Y-103504402D01*
X145558415Y-103224050D01*
X145558410Y-103224044D01*
X145428043Y-103085864D01*
X145318558Y-102969817D01*
X145170488Y-102845572D01*
X145050813Y-102745152D01*
X145050805Y-102745146D01*
X144758796Y-102553088D01*
X144446458Y-102396226D01*
X144446452Y-102396223D01*
X144118012Y-102276681D01*
X144118009Y-102276680D01*
X143777915Y-102196077D01*
X143734519Y-102191004D01*
X143430759Y-102155500D01*
X143081241Y-102155500D01*
X142777480Y-102191004D01*
X142734085Y-102196077D01*
X142734083Y-102196077D01*
X142393990Y-102276680D01*
X142393987Y-102276681D01*
X142065547Y-102396223D01*
X142065541Y-102396226D01*
X141753203Y-102553088D01*
X141461194Y-102745146D01*
X141461186Y-102745152D01*
X141193442Y-102969817D01*
X141193440Y-102969819D01*
X140953589Y-103224044D01*
X140953584Y-103224050D01*
X140744870Y-103504402D01*
X140570113Y-103807091D01*
X140570107Y-103807104D01*
X140431674Y-104128027D01*
X140331430Y-104462865D01*
X140331428Y-104462872D01*
X140270739Y-104807061D01*
X140270738Y-104807072D01*
X140250415Y-105155996D01*
X136964500Y-105155996D01*
X136964500Y-88764135D01*
X138349500Y-88764135D01*
X138349500Y-90559870D01*
X138349501Y-90559876D01*
X138355908Y-90619483D01*
X138406202Y-90754328D01*
X138406206Y-90754335D01*
X138492452Y-90869544D01*
X138492455Y-90869547D01*
X138607664Y-90955793D01*
X138607671Y-90955797D01*
X138652618Y-90972561D01*
X138742517Y-91006091D01*
X138802127Y-91012500D01*
X138875500Y-91012499D01*
X138942538Y-91032183D01*
X138988294Y-91084986D01*
X138999500Y-91136499D01*
X138999500Y-93657006D01*
X138999500Y-93794994D01*
X138999500Y-93794996D01*
X138999499Y-93794996D01*
X139026418Y-93930322D01*
X139026421Y-93930332D01*
X139079222Y-94057807D01*
X139155887Y-94172545D01*
X139155888Y-94172546D01*
X140679886Y-95696542D01*
X140777458Y-95794114D01*
X140777459Y-95794115D01*
X140897254Y-95874160D01*
X140896166Y-95875788D01*
X140939565Y-95918407D01*
X140955036Y-95986542D01*
X140936819Y-96043911D01*
X140930189Y-96054660D01*
X140930185Y-96054668D01*
X140911388Y-96111394D01*
X140875001Y-96221203D01*
X140875001Y-96221204D01*
X140875000Y-96221204D01*
X140864500Y-96323983D01*
X140864500Y-97224001D01*
X140864501Y-97224019D01*
X140875000Y-97326796D01*
X140875001Y-97326799D01*
X140930185Y-97493331D01*
X140930186Y-97493334D01*
X141022288Y-97642656D01*
X141146344Y-97766712D01*
X141295666Y-97858814D01*
X141462203Y-97913999D01*
X141564991Y-97924500D01*
X142915008Y-97924499D01*
X143017797Y-97913999D01*
X143184334Y-97858814D01*
X143333656Y-97766712D01*
X143422319Y-97678049D01*
X143483642Y-97644564D01*
X143553334Y-97649548D01*
X143597681Y-97678049D01*
X143686344Y-97766712D01*
X143835666Y-97858814D01*
X143957580Y-97899212D01*
X143994504Y-97911448D01*
X144051949Y-97951221D01*
X144078772Y-98015737D01*
X144079500Y-98029154D01*
X144079500Y-99245006D01*
X144079500Y-99382994D01*
X144079500Y-99382996D01*
X144079499Y-99382996D01*
X144106418Y-99518322D01*
X144106421Y-99518332D01*
X144159222Y-99645807D01*
X144235887Y-99760545D01*
X147887343Y-103412001D01*
X148002081Y-103488666D01*
X148129556Y-103541467D01*
X148129561Y-103541469D01*
X148129565Y-103541469D01*
X148129566Y-103541470D01*
X148264892Y-103568389D01*
X148264895Y-103568389D01*
X148264896Y-103568389D01*
X150096366Y-103568389D01*
X150163405Y-103588074D01*
X150197940Y-103621265D01*
X150235402Y-103674766D01*
X150390123Y-103829487D01*
X150569361Y-103954991D01*
X150767670Y-104047464D01*
X150979023Y-104104096D01*
X151161926Y-104120097D01*
X151196998Y-104123166D01*
X151197000Y-104123166D01*
X151197002Y-104123166D01*
X151225254Y-104120694D01*
X151414977Y-104104096D01*
X151626330Y-104047464D01*
X151824639Y-103954991D01*
X152003877Y-103829487D01*
X152158598Y-103674766D01*
X152284102Y-103495528D01*
X152354618Y-103344303D01*
X152400790Y-103291866D01*
X152467984Y-103272714D01*
X152534865Y-103292930D01*
X152579381Y-103344303D01*
X152649898Y-103495528D01*
X152775402Y-103674766D01*
X152930123Y-103829487D01*
X153109361Y-103954991D01*
X153307670Y-104047464D01*
X153519023Y-104104096D01*
X153701926Y-104120097D01*
X153736998Y-104123166D01*
X153737000Y-104123166D01*
X153737002Y-104123166D01*
X153765254Y-104120694D01*
X153954977Y-104104096D01*
X154166330Y-104047464D01*
X154364639Y-103954991D01*
X154543877Y-103829487D01*
X154698598Y-103674766D01*
X154824102Y-103495528D01*
X154916575Y-103297219D01*
X154973207Y-103085866D01*
X154992277Y-102867889D01*
X154973207Y-102649912D01*
X154916575Y-102438559D01*
X154824102Y-102240251D01*
X154824100Y-102240248D01*
X154824099Y-102240246D01*
X154698599Y-102061013D01*
X154698598Y-102061012D01*
X154543877Y-101906291D01*
X154543872Y-101906288D01*
X154543869Y-101906285D01*
X154490376Y-101868828D01*
X154446751Y-101814251D01*
X154437500Y-101767254D01*
X154437500Y-100836004D01*
X154410581Y-100700677D01*
X154410580Y-100700676D01*
X154410580Y-100700672D01*
X154410578Y-100700667D01*
X154357778Y-100573195D01*
X154357771Y-100573182D01*
X154281115Y-100458459D01*
X154281114Y-100458458D01*
X154183542Y-100360886D01*
X151933819Y-98111162D01*
X151900334Y-98049839D01*
X151897500Y-98023481D01*
X151897500Y-96348523D01*
X151917185Y-96281484D01*
X151950377Y-96246948D01*
X151987143Y-96221204D01*
X152003877Y-96209487D01*
X152158598Y-96054766D01*
X152284102Y-95875528D01*
X152354618Y-95724303D01*
X152400790Y-95671866D01*
X152467984Y-95652714D01*
X152534865Y-95672930D01*
X152579381Y-95724303D01*
X152649898Y-95875528D01*
X152775402Y-96054766D01*
X152930123Y-96209487D01*
X153109361Y-96334991D01*
X153307670Y-96427464D01*
X153519023Y-96484096D01*
X153701926Y-96500097D01*
X153736998Y-96503166D01*
X153737000Y-96503166D01*
X153737002Y-96503166D01*
X153765254Y-96500694D01*
X153954977Y-96484096D01*
X154166330Y-96427464D01*
X154364639Y-96334991D01*
X154543877Y-96209487D01*
X154698598Y-96054766D01*
X154824102Y-95875528D01*
X154916575Y-95677219D01*
X154973207Y-95465866D01*
X154992277Y-95247889D01*
X154973207Y-95029912D01*
X154916575Y-94818559D01*
X154824102Y-94620251D01*
X154824100Y-94620248D01*
X154824099Y-94620246D01*
X154698599Y-94441013D01*
X154641971Y-94384385D01*
X154543877Y-94286291D01*
X154381431Y-94172545D01*
X154364638Y-94160786D01*
X154265484Y-94114550D01*
X154166330Y-94068314D01*
X154166326Y-94068313D01*
X154166322Y-94068311D01*
X153954977Y-94011682D01*
X153737002Y-93992612D01*
X153736998Y-93992612D01*
X153591682Y-94005325D01*
X153519023Y-94011682D01*
X153519020Y-94011682D01*
X153307677Y-94068311D01*
X153307668Y-94068315D01*
X153109361Y-94160787D01*
X153109357Y-94160789D01*
X152930121Y-94286291D01*
X152775402Y-94441010D01*
X152649900Y-94620246D01*
X152649898Y-94620250D01*
X152579382Y-94771472D01*
X152533209Y-94823911D01*
X152466016Y-94843063D01*
X152399135Y-94822847D01*
X152354618Y-94771472D01*
X152340118Y-94740377D01*
X152284102Y-94620251D01*
X152284100Y-94620248D01*
X152284099Y-94620246D01*
X152158599Y-94441013D01*
X152101971Y-94384385D01*
X152003877Y-94286291D01*
X151841431Y-94172545D01*
X151824638Y-94160786D01*
X151725484Y-94114550D01*
X151626330Y-94068314D01*
X151626326Y-94068313D01*
X151626322Y-94068311D01*
X151414977Y-94011682D01*
X151197002Y-93992612D01*
X151196998Y-93992612D01*
X151051682Y-94005325D01*
X150979023Y-94011682D01*
X150979020Y-94011682D01*
X150767677Y-94068311D01*
X150767668Y-94068315D01*
X150569361Y-94160787D01*
X150569357Y-94160789D01*
X150390124Y-94286289D01*
X150235398Y-94441016D01*
X150197941Y-94494512D01*
X150143365Y-94538137D01*
X150096366Y-94547389D01*
X146210485Y-94547389D01*
X146143446Y-94527704D01*
X146097691Y-94474900D01*
X146087747Y-94405742D01*
X146092779Y-94384385D01*
X146144999Y-94226797D01*
X146155500Y-94124009D01*
X146155499Y-93223992D01*
X146144999Y-93121203D01*
X146089814Y-92954666D01*
X145997712Y-92805344D01*
X145873656Y-92681288D01*
X145724334Y-92589186D01*
X145557797Y-92534001D01*
X145557795Y-92534000D01*
X145455010Y-92523500D01*
X144104998Y-92523500D01*
X144104981Y-92523501D01*
X144002203Y-92534000D01*
X144002200Y-92534001D01*
X143835668Y-92589185D01*
X143835663Y-92589187D01*
X143686342Y-92681289D01*
X143597681Y-92769951D01*
X143536358Y-92803436D01*
X143466666Y-92798452D01*
X143422319Y-92769951D01*
X143333657Y-92681289D01*
X143333656Y-92681288D01*
X143184334Y-92589186D01*
X143184331Y-92589185D01*
X143025496Y-92536552D01*
X142968051Y-92496779D01*
X142941228Y-92432263D01*
X142940500Y-92418846D01*
X142940500Y-90884711D01*
X142960185Y-90817672D01*
X142993377Y-90783136D01*
X143034519Y-90754328D01*
X143111401Y-90700495D01*
X143278495Y-90533401D01*
X143408425Y-90347842D01*
X143463002Y-90304217D01*
X143532500Y-90297023D01*
X143594855Y-90328546D01*
X143611575Y-90347842D01*
X143741500Y-90533395D01*
X143741505Y-90533401D01*
X143908599Y-90700495D01*
X144005384Y-90768265D01*
X144102165Y-90836032D01*
X144102167Y-90836033D01*
X144102170Y-90836035D01*
X144316337Y-90935903D01*
X144544592Y-90997063D01*
X144721034Y-91012500D01*
X144779999Y-91017659D01*
X144780000Y-91017659D01*
X144780001Y-91017659D01*
X144838966Y-91012500D01*
X145015408Y-90997063D01*
X145243663Y-90935903D01*
X145457830Y-90836035D01*
X145651401Y-90700495D01*
X145818495Y-90533401D01*
X145954035Y-90339830D01*
X146053903Y-90125663D01*
X146115063Y-89897408D01*
X146135659Y-89662000D01*
X146123498Y-89522998D01*
X150452311Y-89522998D01*
X150452311Y-89523001D01*
X150472725Y-89808433D01*
X150533549Y-90088037D01*
X150533551Y-90088043D01*
X150533552Y-90088046D01*
X150547583Y-90125664D01*
X150633556Y-90356166D01*
X150770691Y-90607309D01*
X150770696Y-90607317D01*
X150942175Y-90836387D01*
X150942191Y-90836405D01*
X151144515Y-91038729D01*
X151144533Y-91038745D01*
X151373603Y-91210224D01*
X151373611Y-91210229D01*
X151624754Y-91347364D01*
X151624753Y-91347364D01*
X151624757Y-91347365D01*
X151624760Y-91347367D01*
X151892875Y-91447369D01*
X151892881Y-91447370D01*
X151892883Y-91447371D01*
X152172487Y-91508195D01*
X152172489Y-91508195D01*
X152172493Y-91508196D01*
X152426141Y-91526337D01*
X152457920Y-91528610D01*
X152457921Y-91528610D01*
X152457922Y-91528610D01*
X152486516Y-91526564D01*
X152743349Y-91508196D01*
X153022967Y-91447369D01*
X153291082Y-91347367D01*
X153542236Y-91210226D01*
X153771316Y-91038739D01*
X153973660Y-90836395D01*
X153973930Y-90836035D01*
X154035092Y-90754331D01*
X154145147Y-90607315D01*
X154282288Y-90356161D01*
X154382290Y-90088046D01*
X154443117Y-89808428D01*
X154463531Y-89523000D01*
X154443117Y-89237572D01*
X154434583Y-89198344D01*
X154382292Y-88957962D01*
X154382291Y-88957960D01*
X154382290Y-88957954D01*
X154282288Y-88689839D01*
X154246067Y-88623506D01*
X154145150Y-88438690D01*
X154145145Y-88438682D01*
X153973666Y-88209612D01*
X153973650Y-88209594D01*
X153771326Y-88007270D01*
X153771308Y-88007254D01*
X153542238Y-87835775D01*
X153542230Y-87835770D01*
X153291087Y-87698635D01*
X153291088Y-87698635D01*
X153183836Y-87658632D01*
X153022967Y-87598631D01*
X153022964Y-87598630D01*
X153022958Y-87598628D01*
X152743354Y-87537804D01*
X152457922Y-87517390D01*
X152457920Y-87517390D01*
X152172487Y-87537804D01*
X151892883Y-87598628D01*
X151624754Y-87698635D01*
X151373611Y-87835770D01*
X151373603Y-87835775D01*
X151144533Y-88007254D01*
X151144515Y-88007270D01*
X150942191Y-88209594D01*
X150942175Y-88209612D01*
X150770696Y-88438682D01*
X150770691Y-88438690D01*
X150633556Y-88689833D01*
X150533549Y-88957962D01*
X150472725Y-89237566D01*
X150452311Y-89522998D01*
X146123498Y-89522998D01*
X146115063Y-89426592D01*
X146053903Y-89198337D01*
X145954035Y-88984171D01*
X145948425Y-88976158D01*
X145818494Y-88790597D01*
X145651402Y-88623506D01*
X145651395Y-88623501D01*
X145457834Y-88487967D01*
X145457830Y-88487965D01*
X145457828Y-88487964D01*
X145243663Y-88388097D01*
X145243659Y-88388096D01*
X145243655Y-88388094D01*
X145015413Y-88326938D01*
X145015403Y-88326936D01*
X144780001Y-88306341D01*
X144779999Y-88306341D01*
X144544596Y-88326936D01*
X144544586Y-88326938D01*
X144316344Y-88388094D01*
X144316335Y-88388098D01*
X144102171Y-88487964D01*
X144102169Y-88487965D01*
X143908597Y-88623505D01*
X143741505Y-88790597D01*
X143611575Y-88976158D01*
X143556998Y-89019783D01*
X143487500Y-89026977D01*
X143425145Y-88995454D01*
X143408425Y-88976158D01*
X143278494Y-88790597D01*
X143111402Y-88623506D01*
X143111395Y-88623501D01*
X142917834Y-88487967D01*
X142917830Y-88487965D01*
X142917828Y-88487964D01*
X142703663Y-88388097D01*
X142703659Y-88388096D01*
X142703655Y-88388094D01*
X142475413Y-88326938D01*
X142475403Y-88326936D01*
X142240001Y-88306341D01*
X142239999Y-88306341D01*
X142004596Y-88326936D01*
X142004586Y-88326938D01*
X141776344Y-88388094D01*
X141776335Y-88388098D01*
X141562171Y-88487964D01*
X141562169Y-88487965D01*
X141368600Y-88623503D01*
X141246673Y-88745430D01*
X141185350Y-88778914D01*
X141115658Y-88773930D01*
X141059725Y-88732058D01*
X141042810Y-88701081D01*
X140993797Y-88569671D01*
X140993793Y-88569664D01*
X140907547Y-88454455D01*
X140907544Y-88454452D01*
X140792335Y-88368206D01*
X140792328Y-88368202D01*
X140657482Y-88317908D01*
X140657483Y-88317908D01*
X140597883Y-88311501D01*
X140597881Y-88311500D01*
X140597873Y-88311500D01*
X140597864Y-88311500D01*
X138802129Y-88311500D01*
X138802123Y-88311501D01*
X138742516Y-88317908D01*
X138607671Y-88368202D01*
X138607664Y-88368206D01*
X138492455Y-88454452D01*
X138492452Y-88454455D01*
X138406206Y-88569664D01*
X138406202Y-88569671D01*
X138355908Y-88704517D01*
X138349501Y-88764116D01*
X138349500Y-88764135D01*
X136964500Y-88764135D01*
X136964500Y-87184500D01*
X136984185Y-87117461D01*
X137036989Y-87071706D01*
X137088500Y-87060500D01*
X155839500Y-87060500D01*
X155906539Y-87080185D01*
G37*
%TD.AperFunction*%
%TA.AperFunction,NonConductor*%
G36*
X141218418Y-90557417D02*
G01*
X141246670Y-90578566D01*
X141368597Y-90700493D01*
X141368600Y-90700496D01*
X141486623Y-90783136D01*
X141530248Y-90837713D01*
X141539500Y-90884711D01*
X141539500Y-92418845D01*
X141519815Y-92485884D01*
X141467011Y-92531639D01*
X141454505Y-92536551D01*
X141295666Y-92589186D01*
X141295663Y-92589187D01*
X141146342Y-92681289D01*
X141022289Y-92805342D01*
X140930187Y-92954663D01*
X140930186Y-92954666D01*
X140875001Y-93121203D01*
X140875001Y-93121204D01*
X140875000Y-93121204D01*
X140864500Y-93223983D01*
X140864500Y-93600481D01*
X140844815Y-93667520D01*
X140792011Y-93713275D01*
X140722853Y-93723219D01*
X140659297Y-93694194D01*
X140652819Y-93688162D01*
X140436819Y-93472162D01*
X140403334Y-93410839D01*
X140400500Y-93384481D01*
X140400500Y-91136499D01*
X140420185Y-91069460D01*
X140472989Y-91023705D01*
X140524500Y-91012499D01*
X140597871Y-91012499D01*
X140597872Y-91012499D01*
X140657483Y-91006091D01*
X140792331Y-90955796D01*
X140907546Y-90869546D01*
X140993796Y-90754331D01*
X141042810Y-90622916D01*
X141084681Y-90566984D01*
X141150145Y-90542566D01*
X141218418Y-90557417D01*
G37*
%TD.AperFunction*%
%TA.AperFunction,NonConductor*%
G36*
X150163405Y-95968074D02*
G01*
X150197941Y-96001266D01*
X150235398Y-96054761D01*
X150235403Y-96054767D01*
X150390121Y-96209485D01*
X150390127Y-96209490D01*
X150443623Y-96246948D01*
X150487248Y-96301524D01*
X150496500Y-96348523D01*
X150496500Y-98296006D01*
X150496500Y-98433994D01*
X150496500Y-98433996D01*
X150496499Y-98433996D01*
X150523418Y-98569322D01*
X150523421Y-98569332D01*
X150576222Y-98696807D01*
X150652887Y-98811545D01*
X150652888Y-98811546D01*
X153000181Y-101158837D01*
X153033666Y-101220160D01*
X153036500Y-101246518D01*
X153036500Y-101767254D01*
X153016815Y-101834293D01*
X152983624Y-101868828D01*
X152930130Y-101906285D01*
X152930127Y-101906287D01*
X152775400Y-102061013D01*
X152649900Y-102240246D01*
X152649898Y-102240250D01*
X152579382Y-102391472D01*
X152533209Y-102443911D01*
X152466016Y-102463063D01*
X152399135Y-102442847D01*
X152354618Y-102391472D01*
X152340118Y-102360377D01*
X152284102Y-102240251D01*
X152284100Y-102240248D01*
X152284099Y-102240246D01*
X152158599Y-102061013D01*
X152158598Y-102061012D01*
X152003877Y-101906291D01*
X151824639Y-101780787D01*
X151824640Y-101780787D01*
X151824638Y-101780786D01*
X151725484Y-101734550D01*
X151626330Y-101688314D01*
X151626326Y-101688313D01*
X151626322Y-101688311D01*
X151414977Y-101631682D01*
X151197002Y-101612612D01*
X151196998Y-101612612D01*
X151051682Y-101625325D01*
X150979023Y-101631682D01*
X150979020Y-101631682D01*
X150767677Y-101688311D01*
X150767668Y-101688315D01*
X150569361Y-101780787D01*
X150569357Y-101780789D01*
X150390124Y-101906289D01*
X150235398Y-102061016D01*
X150197941Y-102114512D01*
X150143365Y-102158137D01*
X150096366Y-102167389D01*
X148675408Y-102167389D01*
X148608369Y-102147704D01*
X148587727Y-102131070D01*
X145516819Y-99060162D01*
X145483334Y-98998839D01*
X145480500Y-98972481D01*
X145480500Y-98029154D01*
X145500185Y-97962115D01*
X145552989Y-97916360D01*
X145565496Y-97911448D01*
X145592179Y-97902605D01*
X145724334Y-97858814D01*
X145873656Y-97766712D01*
X145997712Y-97642656D01*
X146089814Y-97493334D01*
X146144999Y-97326797D01*
X146155500Y-97224009D01*
X146155499Y-96323992D01*
X146144999Y-96221203D01*
X146108610Y-96111391D01*
X146106209Y-96041565D01*
X146141940Y-95981523D01*
X146204461Y-95950330D01*
X146226317Y-95948389D01*
X150096366Y-95948389D01*
X150163405Y-95968074D01*
G37*
%TD.AperFunction*%
M02*
