%TF.GenerationSoftware,KiCad,Pcbnew,8.0.3*%
%TF.CreationDate,2024-06-28T16:22:58-06:00*%
%TF.ProjectId,Sensor,53656e73-6f72-42e6-9b69-6361645f7063,rev?*%
%TF.SameCoordinates,Original*%
%TF.FileFunction,Legend,Top*%
%TF.FilePolarity,Positive*%
%FSLAX46Y46*%
G04 Gerber Fmt 4.6, Leading zero omitted, Abs format (unit mm)*
G04 Created by KiCad (PCBNEW 8.0.3) date 2024-06-28 16:22:58*
%MOMM*%
%LPD*%
G01*
G04 APERTURE LIST*
%ADD10C,0.300000*%
%ADD11C,0.150000*%
%ADD12C,0.100000*%
%ADD13C,0.120000*%
G04 APERTURE END LIST*
D10*
X150114000Y-87376000D02*
X154940000Y-87376000D01*
X154940000Y-110744000D01*
X150114000Y-110744000D01*
X150114000Y-87376000D01*
D11*
X136824819Y-89995333D02*
X137539104Y-89995333D01*
X137539104Y-89995333D02*
X137681961Y-90042952D01*
X137681961Y-90042952D02*
X137777200Y-90138190D01*
X137777200Y-90138190D02*
X137824819Y-90281047D01*
X137824819Y-90281047D02*
X137824819Y-90376285D01*
X137824819Y-88995333D02*
X137824819Y-89566761D01*
X137824819Y-89281047D02*
X136824819Y-89281047D01*
X136824819Y-89281047D02*
X136967676Y-89376285D01*
X136967676Y-89376285D02*
X137062914Y-89471523D01*
X137062914Y-89471523D02*
X137110533Y-89566761D01*
X151377714Y-98655053D02*
X151520571Y-98655053D01*
X151520571Y-98655053D02*
X151592000Y-98690767D01*
X151592000Y-98690767D02*
X151663428Y-98762196D01*
X151663428Y-98762196D02*
X151699143Y-98905053D01*
X151699143Y-98905053D02*
X151699143Y-99155053D01*
X151699143Y-99155053D02*
X151663428Y-99297910D01*
X151663428Y-99297910D02*
X151592000Y-99369339D01*
X151592000Y-99369339D02*
X151520571Y-99405053D01*
X151520571Y-99405053D02*
X151377714Y-99405053D01*
X151377714Y-99405053D02*
X151306286Y-99369339D01*
X151306286Y-99369339D02*
X151234857Y-99297910D01*
X151234857Y-99297910D02*
X151199143Y-99155053D01*
X151199143Y-99155053D02*
X151199143Y-98905053D01*
X151199143Y-98905053D02*
X151234857Y-98762196D01*
X151234857Y-98762196D02*
X151306286Y-98690767D01*
X151306286Y-98690767D02*
X151377714Y-98655053D01*
X152020571Y-99405053D02*
X152020571Y-98655053D01*
X152020571Y-98655053D02*
X152306285Y-98655053D01*
X152306285Y-98655053D02*
X152377714Y-98690767D01*
X152377714Y-98690767D02*
X152413428Y-98726481D01*
X152413428Y-98726481D02*
X152449142Y-98797910D01*
X152449142Y-98797910D02*
X152449142Y-98905053D01*
X152449142Y-98905053D02*
X152413428Y-98976481D01*
X152413428Y-98976481D02*
X152377714Y-99012196D01*
X152377714Y-99012196D02*
X152306285Y-99047910D01*
X152306285Y-99047910D02*
X152020571Y-99047910D01*
X152663428Y-98655053D02*
X153092000Y-98655053D01*
X152877714Y-99405053D02*
X152877714Y-98655053D01*
X153734857Y-99405053D02*
X153306286Y-99405053D01*
X153520571Y-99405053D02*
X153520571Y-98655053D01*
X153520571Y-98655053D02*
X153449143Y-98762196D01*
X153449143Y-98762196D02*
X153377714Y-98833624D01*
X153377714Y-98833624D02*
X153306286Y-98869339D01*
D12*
X151577419Y-101548004D02*
X150577419Y-101548004D01*
X150577419Y-101548004D02*
X150577419Y-101309909D01*
X150577419Y-101309909D02*
X150625038Y-101167052D01*
X150625038Y-101167052D02*
X150720276Y-101071814D01*
X150720276Y-101071814D02*
X150815514Y-101024195D01*
X150815514Y-101024195D02*
X151005990Y-100976576D01*
X151005990Y-100976576D02*
X151148847Y-100976576D01*
X151148847Y-100976576D02*
X151339323Y-101024195D01*
X151339323Y-101024195D02*
X151434561Y-101071814D01*
X151434561Y-101071814D02*
X151529800Y-101167052D01*
X151529800Y-101167052D02*
X151577419Y-101309909D01*
X151577419Y-101309909D02*
X151577419Y-101548004D01*
X151196466Y-100548004D02*
X151196466Y-99786100D01*
X151577419Y-100167052D02*
X150815514Y-100167052D01*
X153880390Y-96567773D02*
X153880390Y-96901106D01*
X153356580Y-97043963D02*
X153356580Y-96567773D01*
X153356580Y-96567773D02*
X154356580Y-96567773D01*
X154356580Y-96567773D02*
X154356580Y-97043963D01*
X153737533Y-97472535D02*
X153737533Y-98234440D01*
X153356580Y-97853487D02*
X154118485Y-97853487D01*
D11*
X140662819Y-96485904D02*
X140662819Y-97057332D01*
X140662819Y-96771618D02*
X139662819Y-96771618D01*
X139662819Y-96771618D02*
X139805676Y-96866856D01*
X139805676Y-96866856D02*
X139900914Y-96962094D01*
X139900914Y-96962094D02*
X139948533Y-97057332D01*
X139662819Y-95866856D02*
X139662819Y-95771618D01*
X139662819Y-95771618D02*
X139710438Y-95676380D01*
X139710438Y-95676380D02*
X139758057Y-95628761D01*
X139758057Y-95628761D02*
X139853295Y-95581142D01*
X139853295Y-95581142D02*
X140043771Y-95533523D01*
X140043771Y-95533523D02*
X140281866Y-95533523D01*
X140281866Y-95533523D02*
X140472342Y-95581142D01*
X140472342Y-95581142D02*
X140567580Y-95628761D01*
X140567580Y-95628761D02*
X140615200Y-95676380D01*
X140615200Y-95676380D02*
X140662819Y-95771618D01*
X140662819Y-95771618D02*
X140662819Y-95866856D01*
X140662819Y-95866856D02*
X140615200Y-95962094D01*
X140615200Y-95962094D02*
X140567580Y-96009713D01*
X140567580Y-96009713D02*
X140472342Y-96057332D01*
X140472342Y-96057332D02*
X140281866Y-96104951D01*
X140281866Y-96104951D02*
X140043771Y-96104951D01*
X140043771Y-96104951D02*
X139853295Y-96057332D01*
X139853295Y-96057332D02*
X139758057Y-96009713D01*
X139758057Y-96009713D02*
X139710438Y-95962094D01*
X139710438Y-95962094D02*
X139662819Y-95866856D01*
X140662819Y-95104951D02*
X139662819Y-95104951D01*
X140662819Y-94533523D02*
X140091390Y-94962094D01*
X139662819Y-94533523D02*
X140234247Y-95104951D01*
X140662819Y-94152570D02*
X140662819Y-93914475D01*
X140662819Y-93914475D02*
X140472342Y-93914475D01*
X140472342Y-93914475D02*
X140424723Y-94009713D01*
X140424723Y-94009713D02*
X140329485Y-94104951D01*
X140329485Y-94104951D02*
X140186628Y-94152570D01*
X140186628Y-94152570D02*
X139948533Y-94152570D01*
X139948533Y-94152570D02*
X139805676Y-94104951D01*
X139805676Y-94104951D02*
X139710438Y-94009713D01*
X139710438Y-94009713D02*
X139662819Y-93866856D01*
X139662819Y-93866856D02*
X139662819Y-93676380D01*
X139662819Y-93676380D02*
X139710438Y-93533523D01*
X139710438Y-93533523D02*
X139805676Y-93438285D01*
X139805676Y-93438285D02*
X139948533Y-93390666D01*
X139948533Y-93390666D02*
X140186628Y-93390666D01*
X140186628Y-93390666D02*
X140329485Y-93438285D01*
X140329485Y-93438285D02*
X140424723Y-93533523D01*
X140424723Y-93533523D02*
X140472342Y-93628761D01*
X140472342Y-93628761D02*
X140662819Y-93628761D01*
X140662819Y-93628761D02*
X140662819Y-93390666D01*
X146362057Y-97033523D02*
X146314438Y-96985904D01*
X146314438Y-96985904D02*
X146266819Y-96890666D01*
X146266819Y-96890666D02*
X146266819Y-96652571D01*
X146266819Y-96652571D02*
X146314438Y-96557333D01*
X146314438Y-96557333D02*
X146362057Y-96509714D01*
X146362057Y-96509714D02*
X146457295Y-96462095D01*
X146457295Y-96462095D02*
X146552533Y-96462095D01*
X146552533Y-96462095D02*
X146695390Y-96509714D01*
X146695390Y-96509714D02*
X147266819Y-97081142D01*
X147266819Y-97081142D02*
X147266819Y-96462095D01*
X146362057Y-96081142D02*
X146314438Y-96033523D01*
X146314438Y-96033523D02*
X146266819Y-95938285D01*
X146266819Y-95938285D02*
X146266819Y-95700190D01*
X146266819Y-95700190D02*
X146314438Y-95604952D01*
X146314438Y-95604952D02*
X146362057Y-95557333D01*
X146362057Y-95557333D02*
X146457295Y-95509714D01*
X146457295Y-95509714D02*
X146552533Y-95509714D01*
X146552533Y-95509714D02*
X146695390Y-95557333D01*
X146695390Y-95557333D02*
X147266819Y-96128761D01*
X147266819Y-96128761D02*
X147266819Y-95509714D01*
X146266819Y-94890666D02*
X146266819Y-94795428D01*
X146266819Y-94795428D02*
X146314438Y-94700190D01*
X146314438Y-94700190D02*
X146362057Y-94652571D01*
X146362057Y-94652571D02*
X146457295Y-94604952D01*
X146457295Y-94604952D02*
X146647771Y-94557333D01*
X146647771Y-94557333D02*
X146885866Y-94557333D01*
X146885866Y-94557333D02*
X147076342Y-94604952D01*
X147076342Y-94604952D02*
X147171580Y-94652571D01*
X147171580Y-94652571D02*
X147219200Y-94700190D01*
X147219200Y-94700190D02*
X147266819Y-94795428D01*
X147266819Y-94795428D02*
X147266819Y-94890666D01*
X147266819Y-94890666D02*
X147219200Y-94985904D01*
X147219200Y-94985904D02*
X147171580Y-95033523D01*
X147171580Y-95033523D02*
X147076342Y-95081142D01*
X147076342Y-95081142D02*
X146885866Y-95128761D01*
X146885866Y-95128761D02*
X146647771Y-95128761D01*
X146647771Y-95128761D02*
X146457295Y-95081142D01*
X146457295Y-95081142D02*
X146362057Y-95033523D01*
X146362057Y-95033523D02*
X146314438Y-94985904D01*
X146314438Y-94985904D02*
X146266819Y-94890666D01*
X147266819Y-94176380D02*
X147266819Y-93938285D01*
X147266819Y-93938285D02*
X147076342Y-93938285D01*
X147076342Y-93938285D02*
X147028723Y-94033523D01*
X147028723Y-94033523D02*
X146933485Y-94128761D01*
X146933485Y-94128761D02*
X146790628Y-94176380D01*
X146790628Y-94176380D02*
X146552533Y-94176380D01*
X146552533Y-94176380D02*
X146409676Y-94128761D01*
X146409676Y-94128761D02*
X146314438Y-94033523D01*
X146314438Y-94033523D02*
X146266819Y-93890666D01*
X146266819Y-93890666D02*
X146266819Y-93700190D01*
X146266819Y-93700190D02*
X146314438Y-93557333D01*
X146314438Y-93557333D02*
X146409676Y-93462095D01*
X146409676Y-93462095D02*
X146552533Y-93414476D01*
X146552533Y-93414476D02*
X146790628Y-93414476D01*
X146790628Y-93414476D02*
X146933485Y-93462095D01*
X146933485Y-93462095D02*
X147028723Y-93557333D01*
X147028723Y-93557333D02*
X147076342Y-93652571D01*
X147076342Y-93652571D02*
X147266819Y-93652571D01*
X147266819Y-93652571D02*
X147266819Y-93414476D01*
D13*
%TO.C,J1*%
X138370000Y-90992000D02*
X138370000Y-89662000D01*
X139700000Y-90992000D02*
X138370000Y-90992000D01*
X140970000Y-88332000D02*
X146110000Y-88332000D01*
X140970000Y-90992000D02*
X140970000Y-88332000D01*
X140970000Y-90992000D02*
X146110000Y-90992000D01*
X146110000Y-90992000D02*
X146110000Y-88332000D01*
%TO.C,10K\u03A9*%
X141330000Y-94496936D02*
X141330000Y-95951064D01*
X143150000Y-94496936D02*
X143150000Y-95951064D01*
%TO.C,220\u03A9*%
X143870000Y-94496936D02*
X143870000Y-95951064D01*
X145690000Y-94496936D02*
X145690000Y-95951064D01*
%TD*%
M02*
