%TF.GenerationSoftware,KiCad,Pcbnew,8.0.3*%
%TF.CreationDate,2024-06-28T16:22:58-06:00*%
%TF.ProjectId,Sensor,53656e73-6f72-42e6-9b69-6361645f7063,rev?*%
%TF.SameCoordinates,Original*%
%TF.FileFunction,Copper,L2,Bot*%
%TF.FilePolarity,Positive*%
%FSLAX46Y46*%
G04 Gerber Fmt 4.6, Leading zero omitted, Abs format (unit mm)*
G04 Created by KiCad (PCBNEW 8.0.3) date 2024-06-28 16:22:58*
%MOMM*%
%LPD*%
G01*
G04 APERTURE LIST*
%TA.AperFunction,ComponentPad*%
%ADD10R,1.700000X1.700000*%
%TD*%
%TA.AperFunction,ComponentPad*%
%ADD11O,1.700000X1.700000*%
%TD*%
%TA.AperFunction,ComponentPad*%
%ADD12C,1.500000*%
%TD*%
%TA.AperFunction,ViaPad*%
%ADD13C,0.600000*%
%TD*%
%TA.AperFunction,Conductor*%
%ADD14C,0.400000*%
%TD*%
G04 APERTURE END LIST*
D10*
%TO.P,J1,1,Pin_1*%
%TO.N,Net-(J1-Pin_1)*%
X139700000Y-89662000D03*
D11*
%TO.P,J1,2,Pin_2*%
%TO.N,Net-(J1-Pin_2)*%
X142240000Y-89662000D03*
%TO.P,J1,3,Pin_3*%
%TO.N,Net-(J1-Pin_3)*%
X144780000Y-89662000D03*
%TD*%
D12*
%TO.P,OPT1,1,E+*%
%TO.N,Net-(O1-E+)*%
X153737000Y-95247889D03*
%TO.P,OPT1,2,E-*%
%TO.N,Net-(J1-Pin_1)*%
X151197000Y-95247889D03*
%TO.P,OPT1,3,D+*%
%TO.N,Net-(J1-Pin_3)*%
X151197000Y-102867889D03*
%TO.P,OPT1,4,D-*%
%TO.N,Net-(J1-Pin_1)*%
X153737000Y-102867889D03*
%TD*%
D13*
%TO.N,Net-(J1-Pin_3)*%
X144780000Y-96774000D03*
%TO.N,Net-(O1-E+)*%
X142240000Y-96774000D03*
%TD*%
D14*
%TO.N,Net-(J1-Pin_3)*%
X144780000Y-89662000D02*
X144780000Y-96774000D01*
%TO.N,Net-(O1-E+)*%
X142240000Y-97028000D02*
X142240000Y-96774000D01*
X153737000Y-95247889D02*
X150432889Y-98552000D01*
X150432889Y-98552000D02*
X143764000Y-98552000D01*
X143764000Y-98552000D02*
X142240000Y-97028000D01*
%TD*%
%TA.AperFunction,NonConductor*%
G36*
X155906539Y-87080185D02*
G01*
X155952294Y-87132989D01*
X155963500Y-87184500D01*
X155963500Y-110935500D01*
X155943815Y-111002539D01*
X155891011Y-111048294D01*
X155839500Y-111059500D01*
X137088500Y-111059500D01*
X137021461Y-111039815D01*
X136975706Y-110987011D01*
X136964500Y-110935500D01*
X136964500Y-108553893D01*
X150454920Y-108553893D01*
X150454920Y-108553896D01*
X150475334Y-108839328D01*
X150536158Y-109118932D01*
X150636165Y-109387061D01*
X150773300Y-109638204D01*
X150773305Y-109638212D01*
X150944784Y-109867282D01*
X150944800Y-109867300D01*
X151147124Y-110069624D01*
X151147142Y-110069640D01*
X151376212Y-110241119D01*
X151376220Y-110241124D01*
X151627363Y-110378259D01*
X151627362Y-110378259D01*
X151627366Y-110378260D01*
X151627369Y-110378262D01*
X151895484Y-110478264D01*
X151895490Y-110478265D01*
X151895492Y-110478266D01*
X152175096Y-110539090D01*
X152175098Y-110539090D01*
X152175102Y-110539091D01*
X152428750Y-110557232D01*
X152460529Y-110559505D01*
X152460530Y-110559505D01*
X152460531Y-110559505D01*
X152489125Y-110557459D01*
X152745958Y-110539091D01*
X153025576Y-110478264D01*
X153293691Y-110378262D01*
X153544845Y-110241121D01*
X153773925Y-110069634D01*
X153976269Y-109867290D01*
X154147756Y-109638210D01*
X154284897Y-109387056D01*
X154384899Y-109118941D01*
X154445726Y-108839323D01*
X154466140Y-108553895D01*
X154445726Y-108268467D01*
X154384899Y-107988849D01*
X154284897Y-107720734D01*
X154204555Y-107573600D01*
X154147759Y-107469585D01*
X154147754Y-107469577D01*
X153976275Y-107240507D01*
X153976259Y-107240489D01*
X153773935Y-107038165D01*
X153773917Y-107038149D01*
X153544847Y-106866670D01*
X153544839Y-106866665D01*
X153293696Y-106729530D01*
X153293697Y-106729530D01*
X153186445Y-106689527D01*
X153025576Y-106629526D01*
X153025573Y-106629525D01*
X153025567Y-106629523D01*
X152745963Y-106568699D01*
X152460531Y-106548285D01*
X152460529Y-106548285D01*
X152175096Y-106568699D01*
X151895492Y-106629523D01*
X151627363Y-106729530D01*
X151376220Y-106866665D01*
X151376212Y-106866670D01*
X151147142Y-107038149D01*
X151147124Y-107038165D01*
X150944800Y-107240489D01*
X150944784Y-107240507D01*
X150773305Y-107469577D01*
X150773300Y-107469585D01*
X150636165Y-107720728D01*
X150536158Y-107988857D01*
X150475334Y-108268461D01*
X150454920Y-108553893D01*
X136964500Y-108553893D01*
X136964500Y-105155996D01*
X140250415Y-105155996D01*
X140250415Y-105156003D01*
X140270738Y-105504927D01*
X140270739Y-105504938D01*
X140331428Y-105849127D01*
X140331430Y-105849134D01*
X140431674Y-106183972D01*
X140570107Y-106504895D01*
X140570113Y-106504908D01*
X140744870Y-106807597D01*
X140953584Y-107087949D01*
X140953589Y-107087955D01*
X140998114Y-107135148D01*
X141193442Y-107342183D01*
X141345265Y-107469577D01*
X141461186Y-107566847D01*
X141461194Y-107566853D01*
X141753203Y-107758911D01*
X141753207Y-107758913D01*
X142065549Y-107915777D01*
X142393989Y-108035319D01*
X142734086Y-108115923D01*
X143081241Y-108156500D01*
X143081248Y-108156500D01*
X143430752Y-108156500D01*
X143430759Y-108156500D01*
X143777914Y-108115923D01*
X144118011Y-108035319D01*
X144446451Y-107915777D01*
X144758793Y-107758913D01*
X145050811Y-107566849D01*
X145318558Y-107342183D01*
X145558412Y-107087953D01*
X145767130Y-106807596D01*
X145941889Y-106504904D01*
X146080326Y-106183971D01*
X146180569Y-105849136D01*
X146241262Y-105504927D01*
X146261585Y-105156000D01*
X146241262Y-104807073D01*
X146241260Y-104807061D01*
X146180571Y-104462872D01*
X146180569Y-104462865D01*
X146080325Y-104128027D01*
X146057447Y-104074989D01*
X145941889Y-103807096D01*
X145767130Y-103504404D01*
X145767129Y-103504402D01*
X145558415Y-103224050D01*
X145558410Y-103224044D01*
X145428043Y-103085864D01*
X145318558Y-102969817D01*
X145197081Y-102867886D01*
X149941723Y-102867886D01*
X149941723Y-102867891D01*
X149960793Y-103085864D01*
X149960793Y-103085868D01*
X150017422Y-103297211D01*
X150017424Y-103297215D01*
X150017425Y-103297219D01*
X150039382Y-103344305D01*
X150109897Y-103495527D01*
X150116113Y-103504404D01*
X150235402Y-103674766D01*
X150390123Y-103829487D01*
X150569361Y-103954991D01*
X150767670Y-104047464D01*
X150979023Y-104104096D01*
X151161926Y-104120097D01*
X151196998Y-104123166D01*
X151197000Y-104123166D01*
X151197002Y-104123166D01*
X151225254Y-104120694D01*
X151414977Y-104104096D01*
X151626330Y-104047464D01*
X151824639Y-103954991D01*
X152003877Y-103829487D01*
X152158598Y-103674766D01*
X152284102Y-103495528D01*
X152354618Y-103344303D01*
X152400790Y-103291866D01*
X152467984Y-103272714D01*
X152534865Y-103292930D01*
X152579381Y-103344303D01*
X152649898Y-103495528D01*
X152775402Y-103674766D01*
X152930123Y-103829487D01*
X153109361Y-103954991D01*
X153307670Y-104047464D01*
X153519023Y-104104096D01*
X153701926Y-104120097D01*
X153736998Y-104123166D01*
X153737000Y-104123166D01*
X153737002Y-104123166D01*
X153765254Y-104120694D01*
X153954977Y-104104096D01*
X154166330Y-104047464D01*
X154364639Y-103954991D01*
X154543877Y-103829487D01*
X154698598Y-103674766D01*
X154824102Y-103495528D01*
X154916575Y-103297219D01*
X154973207Y-103085866D01*
X154992277Y-102867889D01*
X154973207Y-102649912D01*
X154916575Y-102438559D01*
X154824102Y-102240251D01*
X154824100Y-102240248D01*
X154824099Y-102240246D01*
X154698599Y-102061013D01*
X154698596Y-102061010D01*
X154543877Y-101906291D01*
X154364639Y-101780787D01*
X154364640Y-101780787D01*
X154364638Y-101780786D01*
X154265484Y-101734550D01*
X154166330Y-101688314D01*
X154166326Y-101688313D01*
X154166322Y-101688311D01*
X153954977Y-101631682D01*
X153737002Y-101612612D01*
X153736998Y-101612612D01*
X153591682Y-101625325D01*
X153519023Y-101631682D01*
X153519020Y-101631682D01*
X153307677Y-101688311D01*
X153307668Y-101688315D01*
X153109361Y-101780787D01*
X153109357Y-101780789D01*
X152930121Y-101906291D01*
X152775402Y-102061010D01*
X152649900Y-102240246D01*
X152649898Y-102240250D01*
X152579382Y-102391472D01*
X152533209Y-102443911D01*
X152466016Y-102463063D01*
X152399135Y-102442847D01*
X152354618Y-102391472D01*
X152340118Y-102360377D01*
X152284102Y-102240251D01*
X152284100Y-102240248D01*
X152284099Y-102240246D01*
X152158599Y-102061013D01*
X152158596Y-102061010D01*
X152003877Y-101906291D01*
X151824639Y-101780787D01*
X151824640Y-101780787D01*
X151824638Y-101780786D01*
X151725484Y-101734550D01*
X151626330Y-101688314D01*
X151626326Y-101688313D01*
X151626322Y-101688311D01*
X151414977Y-101631682D01*
X151197002Y-101612612D01*
X151196998Y-101612612D01*
X151051682Y-101625325D01*
X150979023Y-101631682D01*
X150979020Y-101631682D01*
X150767677Y-101688311D01*
X150767668Y-101688315D01*
X150569361Y-101780787D01*
X150569357Y-101780789D01*
X150390121Y-101906291D01*
X150235402Y-102061010D01*
X150109900Y-102240246D01*
X150109898Y-102240250D01*
X150017426Y-102438557D01*
X150017422Y-102438566D01*
X149960793Y-102649909D01*
X149960793Y-102649913D01*
X149941723Y-102867886D01*
X145197081Y-102867886D01*
X145170488Y-102845572D01*
X145050813Y-102745152D01*
X145050805Y-102745146D01*
X144758796Y-102553088D01*
X144446458Y-102396226D01*
X144446452Y-102396223D01*
X144118012Y-102276681D01*
X144118009Y-102276680D01*
X143777915Y-102196077D01*
X143734519Y-102191004D01*
X143430759Y-102155500D01*
X143081241Y-102155500D01*
X142777480Y-102191004D01*
X142734085Y-102196077D01*
X142734083Y-102196077D01*
X142393990Y-102276680D01*
X142393987Y-102276681D01*
X142065547Y-102396223D01*
X142065541Y-102396226D01*
X141753203Y-102553088D01*
X141461194Y-102745146D01*
X141461186Y-102745152D01*
X141193442Y-102969817D01*
X141193440Y-102969819D01*
X140953589Y-103224044D01*
X140953584Y-103224050D01*
X140744870Y-103504402D01*
X140570113Y-103807091D01*
X140570107Y-103807104D01*
X140431674Y-104128027D01*
X140331430Y-104462865D01*
X140331428Y-104462872D01*
X140270739Y-104807061D01*
X140270738Y-104807072D01*
X140250415Y-105155996D01*
X136964500Y-105155996D01*
X136964500Y-96773996D01*
X141434435Y-96773996D01*
X141434435Y-96774003D01*
X141454630Y-96953249D01*
X141454633Y-96953262D01*
X141514209Y-97123518D01*
X141514212Y-97123524D01*
X141546771Y-97175341D01*
X141563396Y-97217124D01*
X141566420Y-97232329D01*
X141566420Y-97232330D01*
X141619222Y-97359807D01*
X141695887Y-97474545D01*
X141695888Y-97474546D01*
X143219886Y-98998542D01*
X143317455Y-99096111D01*
X143317459Y-99096115D01*
X143432182Y-99172771D01*
X143432186Y-99172773D01*
X143432189Y-99172775D01*
X143506866Y-99203707D01*
X143506867Y-99203707D01*
X143506869Y-99203709D01*
X143559666Y-99225578D01*
X143559671Y-99225580D01*
X143559680Y-99225581D01*
X143559681Y-99225582D01*
X143586545Y-99230925D01*
X143586551Y-99230926D01*
X143586591Y-99230934D01*
X143676937Y-99248905D01*
X143695006Y-99252500D01*
X143695007Y-99252500D01*
X150501885Y-99252500D01*
X150610346Y-99230925D01*
X150637217Y-99225580D01*
X150700958Y-99199177D01*
X150764696Y-99172777D01*
X150764697Y-99172776D01*
X150764700Y-99172775D01*
X150879432Y-99096114D01*
X153452783Y-96522761D01*
X153514104Y-96489278D01*
X153551262Y-96486916D01*
X153724082Y-96502035D01*
X153736999Y-96503166D01*
X153737000Y-96503166D01*
X153737002Y-96503166D01*
X153765254Y-96500694D01*
X153954977Y-96484096D01*
X154166330Y-96427464D01*
X154364639Y-96334991D01*
X154543877Y-96209487D01*
X154698598Y-96054766D01*
X154824102Y-95875528D01*
X154916575Y-95677219D01*
X154973207Y-95465866D01*
X154992277Y-95247889D01*
X154973207Y-95029912D01*
X154916575Y-94818559D01*
X154824102Y-94620251D01*
X154824100Y-94620248D01*
X154824099Y-94620246D01*
X154698599Y-94441013D01*
X154698596Y-94441010D01*
X154543877Y-94286291D01*
X154364639Y-94160787D01*
X154364640Y-94160787D01*
X154364638Y-94160786D01*
X154265484Y-94114550D01*
X154166330Y-94068314D01*
X154166326Y-94068313D01*
X154166322Y-94068311D01*
X153954977Y-94011682D01*
X153737002Y-93992612D01*
X153736998Y-93992612D01*
X153591682Y-94005325D01*
X153519023Y-94011682D01*
X153519020Y-94011682D01*
X153307677Y-94068311D01*
X153307668Y-94068315D01*
X153109361Y-94160787D01*
X153109357Y-94160789D01*
X152930121Y-94286291D01*
X152775402Y-94441010D01*
X152649900Y-94620246D01*
X152649898Y-94620250D01*
X152579382Y-94771472D01*
X152533209Y-94823911D01*
X152466016Y-94843063D01*
X152399135Y-94822847D01*
X152354618Y-94771472D01*
X152340118Y-94740377D01*
X152284102Y-94620251D01*
X152284100Y-94620248D01*
X152284099Y-94620246D01*
X152158599Y-94441013D01*
X152158596Y-94441010D01*
X152003877Y-94286291D01*
X151824639Y-94160787D01*
X151824640Y-94160787D01*
X151824638Y-94160786D01*
X151725484Y-94114550D01*
X151626330Y-94068314D01*
X151626326Y-94068313D01*
X151626322Y-94068311D01*
X151414977Y-94011682D01*
X151197002Y-93992612D01*
X151196998Y-93992612D01*
X151051682Y-94005325D01*
X150979023Y-94011682D01*
X150979020Y-94011682D01*
X150767677Y-94068311D01*
X150767668Y-94068315D01*
X150569361Y-94160787D01*
X150569357Y-94160789D01*
X150390121Y-94286291D01*
X150235402Y-94441010D01*
X150109900Y-94620246D01*
X150109898Y-94620250D01*
X150017426Y-94818557D01*
X150017422Y-94818566D01*
X149960793Y-95029909D01*
X149960793Y-95029913D01*
X149941723Y-95247886D01*
X149941723Y-95247891D01*
X149960793Y-95465864D01*
X149960793Y-95465868D01*
X150017422Y-95677211D01*
X150017424Y-95677215D01*
X150017425Y-95677219D01*
X150063661Y-95776373D01*
X150109897Y-95875527D01*
X150109898Y-95875528D01*
X150235402Y-96054766D01*
X150390123Y-96209487D01*
X150569361Y-96334991D01*
X150767670Y-96427464D01*
X150979023Y-96484096D01*
X151164501Y-96500322D01*
X151202393Y-96503638D01*
X151202165Y-96506238D01*
X151258742Y-96522851D01*
X151304497Y-96575655D01*
X151314441Y-96644813D01*
X151285416Y-96708369D01*
X151279384Y-96714847D01*
X150179051Y-97815181D01*
X150117728Y-97848666D01*
X150091370Y-97851500D01*
X144105518Y-97851500D01*
X144038479Y-97831815D01*
X144017837Y-97815181D01*
X143080812Y-96878155D01*
X143047327Y-96816832D01*
X143045273Y-96776589D01*
X143045565Y-96774000D01*
X143025368Y-96594745D01*
X142965789Y-96424478D01*
X142940499Y-96384230D01*
X142918053Y-96348507D01*
X142869816Y-96271738D01*
X142742262Y-96144184D01*
X142589523Y-96048211D01*
X142419254Y-95988631D01*
X142419249Y-95988630D01*
X142240004Y-95968435D01*
X142239996Y-95968435D01*
X142060750Y-95988630D01*
X142060745Y-95988631D01*
X141890476Y-96048211D01*
X141737737Y-96144184D01*
X141610184Y-96271737D01*
X141514211Y-96424476D01*
X141454631Y-96594745D01*
X141454630Y-96594750D01*
X141434435Y-96773996D01*
X136964500Y-96773996D01*
X136964500Y-88764135D01*
X138349500Y-88764135D01*
X138349500Y-90559870D01*
X138349501Y-90559876D01*
X138355908Y-90619483D01*
X138406202Y-90754328D01*
X138406206Y-90754335D01*
X138492452Y-90869544D01*
X138492455Y-90869547D01*
X138607664Y-90955793D01*
X138607671Y-90955797D01*
X138742517Y-91006091D01*
X138742516Y-91006091D01*
X138749444Y-91006835D01*
X138802127Y-91012500D01*
X140597872Y-91012499D01*
X140657483Y-91006091D01*
X140792331Y-90955796D01*
X140907546Y-90869546D01*
X140993796Y-90754331D01*
X141042810Y-90622916D01*
X141084681Y-90566984D01*
X141150145Y-90542566D01*
X141218418Y-90557417D01*
X141246673Y-90578569D01*
X141368599Y-90700495D01*
X141465384Y-90768265D01*
X141562165Y-90836032D01*
X141562167Y-90836033D01*
X141562170Y-90836035D01*
X141776337Y-90935903D01*
X142004592Y-90997063D01*
X142181034Y-91012500D01*
X142239999Y-91017659D01*
X142240000Y-91017659D01*
X142240001Y-91017659D01*
X142298966Y-91012500D01*
X142475408Y-90997063D01*
X142703663Y-90935903D01*
X142917830Y-90836035D01*
X143111401Y-90700495D01*
X143278495Y-90533401D01*
X143408425Y-90347842D01*
X143463002Y-90304217D01*
X143532500Y-90297023D01*
X143594855Y-90328546D01*
X143611575Y-90347842D01*
X143741501Y-90533396D01*
X143741506Y-90533402D01*
X143908597Y-90700494D01*
X144026623Y-90783136D01*
X144070248Y-90837713D01*
X144079500Y-90884711D01*
X144079500Y-96348507D01*
X144060494Y-96414478D01*
X144054209Y-96424479D01*
X143994633Y-96594737D01*
X143994630Y-96594750D01*
X143974435Y-96773996D01*
X143974435Y-96774003D01*
X143994630Y-96953249D01*
X143994631Y-96953254D01*
X144054211Y-97123523D01*
X144150184Y-97276262D01*
X144277738Y-97403816D01*
X144430478Y-97499789D01*
X144600745Y-97559368D01*
X144600750Y-97559369D01*
X144779996Y-97579565D01*
X144780000Y-97579565D01*
X144780004Y-97579565D01*
X144959249Y-97559369D01*
X144959252Y-97559368D01*
X144959255Y-97559368D01*
X145129522Y-97499789D01*
X145282262Y-97403816D01*
X145409816Y-97276262D01*
X145505789Y-97123522D01*
X145565368Y-96953255D01*
X145573830Y-96878155D01*
X145585565Y-96774003D01*
X145585565Y-96773996D01*
X145565369Y-96594750D01*
X145565366Y-96594737D01*
X145505790Y-96424479D01*
X145499506Y-96414478D01*
X145480500Y-96348507D01*
X145480500Y-90884711D01*
X145500185Y-90817672D01*
X145533377Y-90783136D01*
X145574519Y-90754328D01*
X145651401Y-90700495D01*
X145818495Y-90533401D01*
X145954035Y-90339830D01*
X146053903Y-90125663D01*
X146115063Y-89897408D01*
X146135659Y-89662000D01*
X146123498Y-89522998D01*
X150452311Y-89522998D01*
X150452311Y-89523001D01*
X150472725Y-89808433D01*
X150533549Y-90088037D01*
X150533551Y-90088043D01*
X150533552Y-90088046D01*
X150547583Y-90125664D01*
X150633556Y-90356166D01*
X150770691Y-90607309D01*
X150770696Y-90607317D01*
X150942175Y-90836387D01*
X150942191Y-90836405D01*
X151144515Y-91038729D01*
X151144533Y-91038745D01*
X151373603Y-91210224D01*
X151373611Y-91210229D01*
X151624754Y-91347364D01*
X151624753Y-91347364D01*
X151624757Y-91347365D01*
X151624760Y-91347367D01*
X151892875Y-91447369D01*
X151892881Y-91447370D01*
X151892883Y-91447371D01*
X152172487Y-91508195D01*
X152172489Y-91508195D01*
X152172493Y-91508196D01*
X152426141Y-91526337D01*
X152457920Y-91528610D01*
X152457921Y-91528610D01*
X152457922Y-91528610D01*
X152486516Y-91526564D01*
X152743349Y-91508196D01*
X153022967Y-91447369D01*
X153291082Y-91347367D01*
X153542236Y-91210226D01*
X153771316Y-91038739D01*
X153973660Y-90836395D01*
X153973930Y-90836035D01*
X154035092Y-90754331D01*
X154145147Y-90607315D01*
X154282288Y-90356161D01*
X154382290Y-90088046D01*
X154443117Y-89808428D01*
X154463531Y-89523000D01*
X154443117Y-89237572D01*
X154434583Y-89198344D01*
X154382292Y-88957962D01*
X154382291Y-88957960D01*
X154382290Y-88957954D01*
X154282288Y-88689839D01*
X154246067Y-88623506D01*
X154145150Y-88438690D01*
X154145145Y-88438682D01*
X153973666Y-88209612D01*
X153973650Y-88209594D01*
X153771326Y-88007270D01*
X153771308Y-88007254D01*
X153542238Y-87835775D01*
X153542230Y-87835770D01*
X153291087Y-87698635D01*
X153291088Y-87698635D01*
X153183836Y-87658632D01*
X153022967Y-87598631D01*
X153022964Y-87598630D01*
X153022958Y-87598628D01*
X152743354Y-87537804D01*
X152457922Y-87517390D01*
X152457920Y-87517390D01*
X152172487Y-87537804D01*
X151892883Y-87598628D01*
X151624754Y-87698635D01*
X151373611Y-87835770D01*
X151373603Y-87835775D01*
X151144533Y-88007254D01*
X151144515Y-88007270D01*
X150942191Y-88209594D01*
X150942175Y-88209612D01*
X150770696Y-88438682D01*
X150770691Y-88438690D01*
X150633556Y-88689833D01*
X150533549Y-88957962D01*
X150472725Y-89237566D01*
X150452311Y-89522998D01*
X146123498Y-89522998D01*
X146115063Y-89426592D01*
X146053903Y-89198337D01*
X145954035Y-88984171D01*
X145948425Y-88976158D01*
X145818494Y-88790597D01*
X145651402Y-88623506D01*
X145651395Y-88623501D01*
X145457834Y-88487967D01*
X145457830Y-88487965D01*
X145457828Y-88487964D01*
X145243663Y-88388097D01*
X145243659Y-88388096D01*
X145243655Y-88388094D01*
X145015413Y-88326938D01*
X145015403Y-88326936D01*
X144780001Y-88306341D01*
X144779999Y-88306341D01*
X144544596Y-88326936D01*
X144544586Y-88326938D01*
X144316344Y-88388094D01*
X144316335Y-88388098D01*
X144102171Y-88487964D01*
X144102169Y-88487965D01*
X143908597Y-88623505D01*
X143741505Y-88790597D01*
X143611575Y-88976158D01*
X143556998Y-89019783D01*
X143487500Y-89026977D01*
X143425145Y-88995454D01*
X143408425Y-88976158D01*
X143278494Y-88790597D01*
X143111402Y-88623506D01*
X143111395Y-88623501D01*
X142917834Y-88487967D01*
X142917830Y-88487965D01*
X142917828Y-88487964D01*
X142703663Y-88388097D01*
X142703659Y-88388096D01*
X142703655Y-88388094D01*
X142475413Y-88326938D01*
X142475403Y-88326936D01*
X142240001Y-88306341D01*
X142239999Y-88306341D01*
X142004596Y-88326936D01*
X142004586Y-88326938D01*
X141776344Y-88388094D01*
X141776335Y-88388098D01*
X141562171Y-88487964D01*
X141562169Y-88487965D01*
X141368600Y-88623503D01*
X141246673Y-88745430D01*
X141185350Y-88778914D01*
X141115658Y-88773930D01*
X141059725Y-88732058D01*
X141042810Y-88701081D01*
X140993797Y-88569671D01*
X140993793Y-88569664D01*
X140907547Y-88454455D01*
X140907544Y-88454452D01*
X140792335Y-88368206D01*
X140792328Y-88368202D01*
X140657482Y-88317908D01*
X140657483Y-88317908D01*
X140597883Y-88311501D01*
X140597881Y-88311500D01*
X140597873Y-88311500D01*
X140597864Y-88311500D01*
X138802129Y-88311500D01*
X138802123Y-88311501D01*
X138742516Y-88317908D01*
X138607671Y-88368202D01*
X138607664Y-88368206D01*
X138492455Y-88454452D01*
X138492452Y-88454455D01*
X138406206Y-88569664D01*
X138406202Y-88569671D01*
X138355908Y-88704517D01*
X138349501Y-88764116D01*
X138349500Y-88764135D01*
X136964500Y-88764135D01*
X136964500Y-87184500D01*
X136984185Y-87117461D01*
X137036989Y-87071706D01*
X137088500Y-87060500D01*
X155839500Y-87060500D01*
X155906539Y-87080185D01*
G37*
%TD.AperFunction*%
M02*
