%TF.GenerationSoftware,KiCad,Pcbnew,8.0.3*%
%TF.CreationDate,2024-06-12T19:29:14-06:00*%
%TF.ProjectId,CutMachine_PCB,4375744d-6163-4686-996e-655f5043422e,rev?*%
%TF.SameCoordinates,Original*%
%TF.FileFunction,Legend,Top*%
%TF.FilePolarity,Positive*%
%FSLAX46Y46*%
G04 Gerber Fmt 4.6, Leading zero omitted, Abs format (unit mm)*
G04 Created by KiCad (PCBNEW 8.0.3) date 2024-06-12 19:29:14*
%MOMM*%
%LPD*%
G01*
G04 APERTURE LIST*
%ADD10C,0.150000*%
%ADD11C,0.120000*%
G04 APERTURE END LIST*
D10*
X87998857Y-94705009D02*
X88141714Y-94752628D01*
X88141714Y-94752628D02*
X88189333Y-94800247D01*
X88189333Y-94800247D02*
X88236952Y-94895485D01*
X88236952Y-94895485D02*
X88236952Y-95038342D01*
X88236952Y-95038342D02*
X88189333Y-95133580D01*
X88189333Y-95133580D02*
X88141714Y-95181200D01*
X88141714Y-95181200D02*
X88046476Y-95228819D01*
X88046476Y-95228819D02*
X87665524Y-95228819D01*
X87665524Y-95228819D02*
X87665524Y-94228819D01*
X87665524Y-94228819D02*
X87998857Y-94228819D01*
X87998857Y-94228819D02*
X88094095Y-94276438D01*
X88094095Y-94276438D02*
X88141714Y-94324057D01*
X88141714Y-94324057D02*
X88189333Y-94419295D01*
X88189333Y-94419295D02*
X88189333Y-94514533D01*
X88189333Y-94514533D02*
X88141714Y-94609771D01*
X88141714Y-94609771D02*
X88094095Y-94657390D01*
X88094095Y-94657390D02*
X87998857Y-94705009D01*
X87998857Y-94705009D02*
X87665524Y-94705009D01*
X88617905Y-94943104D02*
X89094095Y-94943104D01*
X88522667Y-95228819D02*
X88856000Y-94228819D01*
X88856000Y-94228819D02*
X89189333Y-95228819D01*
X90094095Y-95133580D02*
X90046476Y-95181200D01*
X90046476Y-95181200D02*
X89903619Y-95228819D01*
X89903619Y-95228819D02*
X89808381Y-95228819D01*
X89808381Y-95228819D02*
X89665524Y-95181200D01*
X89665524Y-95181200D02*
X89570286Y-95085961D01*
X89570286Y-95085961D02*
X89522667Y-94990723D01*
X89522667Y-94990723D02*
X89475048Y-94800247D01*
X89475048Y-94800247D02*
X89475048Y-94657390D01*
X89475048Y-94657390D02*
X89522667Y-94466914D01*
X89522667Y-94466914D02*
X89570286Y-94371676D01*
X89570286Y-94371676D02*
X89665524Y-94276438D01*
X89665524Y-94276438D02*
X89808381Y-94228819D01*
X89808381Y-94228819D02*
X89903619Y-94228819D01*
X89903619Y-94228819D02*
X90046476Y-94276438D01*
X90046476Y-94276438D02*
X90094095Y-94324057D01*
X90522667Y-95228819D02*
X90522667Y-94228819D01*
X91094095Y-95228819D02*
X90665524Y-94657390D01*
X91094095Y-94228819D02*
X90522667Y-94800247D01*
X103021048Y-111294819D02*
X103021048Y-110294819D01*
X103021048Y-110294819D02*
X103259143Y-110294819D01*
X103259143Y-110294819D02*
X103402000Y-110342438D01*
X103402000Y-110342438D02*
X103497238Y-110437676D01*
X103497238Y-110437676D02*
X103544857Y-110532914D01*
X103544857Y-110532914D02*
X103592476Y-110723390D01*
X103592476Y-110723390D02*
X103592476Y-110866247D01*
X103592476Y-110866247D02*
X103544857Y-111056723D01*
X103544857Y-111056723D02*
X103497238Y-111151961D01*
X103497238Y-111151961D02*
X103402000Y-111247200D01*
X103402000Y-111247200D02*
X103259143Y-111294819D01*
X103259143Y-111294819D02*
X103021048Y-111294819D01*
X104211524Y-110294819D02*
X104402000Y-110294819D01*
X104402000Y-110294819D02*
X104497238Y-110342438D01*
X104497238Y-110342438D02*
X104592476Y-110437676D01*
X104592476Y-110437676D02*
X104640095Y-110628152D01*
X104640095Y-110628152D02*
X104640095Y-110961485D01*
X104640095Y-110961485D02*
X104592476Y-111151961D01*
X104592476Y-111151961D02*
X104497238Y-111247200D01*
X104497238Y-111247200D02*
X104402000Y-111294819D01*
X104402000Y-111294819D02*
X104211524Y-111294819D01*
X104211524Y-111294819D02*
X104116286Y-111247200D01*
X104116286Y-111247200D02*
X104021048Y-111151961D01*
X104021048Y-111151961D02*
X103973429Y-110961485D01*
X103973429Y-110961485D02*
X103973429Y-110628152D01*
X103973429Y-110628152D02*
X104021048Y-110437676D01*
X104021048Y-110437676D02*
X104116286Y-110342438D01*
X104116286Y-110342438D02*
X104211524Y-110294819D01*
X104973429Y-110294819D02*
X105211524Y-111294819D01*
X105211524Y-111294819D02*
X105402000Y-110580533D01*
X105402000Y-110580533D02*
X105592476Y-111294819D01*
X105592476Y-111294819D02*
X105830572Y-110294819D01*
X106211524Y-111294819D02*
X106211524Y-110294819D01*
X106211524Y-110294819D02*
X106782952Y-111294819D01*
X106782952Y-111294819D02*
X106782952Y-110294819D01*
X104064286Y-86608819D02*
X104064286Y-87418342D01*
X104064286Y-87418342D02*
X104111905Y-87513580D01*
X104111905Y-87513580D02*
X104159524Y-87561200D01*
X104159524Y-87561200D02*
X104254762Y-87608819D01*
X104254762Y-87608819D02*
X104445238Y-87608819D01*
X104445238Y-87608819D02*
X104540476Y-87561200D01*
X104540476Y-87561200D02*
X104588095Y-87513580D01*
X104588095Y-87513580D02*
X104635714Y-87418342D01*
X104635714Y-87418342D02*
X104635714Y-86608819D01*
X105111905Y-87608819D02*
X105111905Y-86608819D01*
X105111905Y-86608819D02*
X105492857Y-86608819D01*
X105492857Y-86608819D02*
X105588095Y-86656438D01*
X105588095Y-86656438D02*
X105635714Y-86704057D01*
X105635714Y-86704057D02*
X105683333Y-86799295D01*
X105683333Y-86799295D02*
X105683333Y-86942152D01*
X105683333Y-86942152D02*
X105635714Y-87037390D01*
X105635714Y-87037390D02*
X105588095Y-87085009D01*
X105588095Y-87085009D02*
X105492857Y-87132628D01*
X105492857Y-87132628D02*
X105111905Y-87132628D01*
X118375809Y-95109200D02*
X118518666Y-95156819D01*
X118518666Y-95156819D02*
X118756761Y-95156819D01*
X118756761Y-95156819D02*
X118851999Y-95109200D01*
X118851999Y-95109200D02*
X118899618Y-95061580D01*
X118899618Y-95061580D02*
X118947237Y-94966342D01*
X118947237Y-94966342D02*
X118947237Y-94871104D01*
X118947237Y-94871104D02*
X118899618Y-94775866D01*
X118899618Y-94775866D02*
X118851999Y-94728247D01*
X118851999Y-94728247D02*
X118756761Y-94680628D01*
X118756761Y-94680628D02*
X118566285Y-94633009D01*
X118566285Y-94633009D02*
X118471047Y-94585390D01*
X118471047Y-94585390D02*
X118423428Y-94537771D01*
X118423428Y-94537771D02*
X118375809Y-94442533D01*
X118375809Y-94442533D02*
X118375809Y-94347295D01*
X118375809Y-94347295D02*
X118423428Y-94252057D01*
X118423428Y-94252057D02*
X118471047Y-94204438D01*
X118471047Y-94204438D02*
X118566285Y-94156819D01*
X118566285Y-94156819D02*
X118804380Y-94156819D01*
X118804380Y-94156819D02*
X118947237Y-94204438D01*
X119375809Y-94633009D02*
X119709142Y-94633009D01*
X119851999Y-95156819D02*
X119375809Y-95156819D01*
X119375809Y-95156819D02*
X119375809Y-94156819D01*
X119375809Y-94156819D02*
X119851999Y-94156819D01*
X120756761Y-95156819D02*
X120280571Y-95156819D01*
X120280571Y-95156819D02*
X120280571Y-94156819D01*
X121090095Y-94633009D02*
X121423428Y-94633009D01*
X121566285Y-95156819D02*
X121090095Y-95156819D01*
X121090095Y-95156819D02*
X121090095Y-94156819D01*
X121090095Y-94156819D02*
X121566285Y-94156819D01*
X122566285Y-95061580D02*
X122518666Y-95109200D01*
X122518666Y-95109200D02*
X122375809Y-95156819D01*
X122375809Y-95156819D02*
X122280571Y-95156819D01*
X122280571Y-95156819D02*
X122137714Y-95109200D01*
X122137714Y-95109200D02*
X122042476Y-95013961D01*
X122042476Y-95013961D02*
X121994857Y-94918723D01*
X121994857Y-94918723D02*
X121947238Y-94728247D01*
X121947238Y-94728247D02*
X121947238Y-94585390D01*
X121947238Y-94585390D02*
X121994857Y-94394914D01*
X121994857Y-94394914D02*
X122042476Y-94299676D01*
X122042476Y-94299676D02*
X122137714Y-94204438D01*
X122137714Y-94204438D02*
X122280571Y-94156819D01*
X122280571Y-94156819D02*
X122375809Y-94156819D01*
X122375809Y-94156819D02*
X122518666Y-94204438D01*
X122518666Y-94204438D02*
X122566285Y-94252057D01*
X122852000Y-94156819D02*
X123423428Y-94156819D01*
X123137714Y-95156819D02*
X123137714Y-94156819D01*
X91682819Y-90870666D02*
X91206628Y-91203999D01*
X91682819Y-91442094D02*
X90682819Y-91442094D01*
X90682819Y-91442094D02*
X90682819Y-91061142D01*
X90682819Y-91061142D02*
X90730438Y-90965904D01*
X90730438Y-90965904D02*
X90778057Y-90918285D01*
X90778057Y-90918285D02*
X90873295Y-90870666D01*
X90873295Y-90870666D02*
X91016152Y-90870666D01*
X91016152Y-90870666D02*
X91111390Y-90918285D01*
X91111390Y-90918285D02*
X91159009Y-90965904D01*
X91159009Y-90965904D02*
X91206628Y-91061142D01*
X91206628Y-91061142D02*
X91206628Y-91442094D01*
X91016152Y-90013523D02*
X91682819Y-90013523D01*
X90635200Y-90251618D02*
X91349485Y-90489713D01*
X91349485Y-90489713D02*
X91349485Y-89870666D01*
X97524819Y-90818666D02*
X97048628Y-91151999D01*
X97524819Y-91390094D02*
X96524819Y-91390094D01*
X96524819Y-91390094D02*
X96524819Y-91009142D01*
X96524819Y-91009142D02*
X96572438Y-90913904D01*
X96572438Y-90913904D02*
X96620057Y-90866285D01*
X96620057Y-90866285D02*
X96715295Y-90818666D01*
X96715295Y-90818666D02*
X96858152Y-90818666D01*
X96858152Y-90818666D02*
X96953390Y-90866285D01*
X96953390Y-90866285D02*
X97001009Y-90913904D01*
X97001009Y-90913904D02*
X97048628Y-91009142D01*
X97048628Y-91009142D02*
X97048628Y-91390094D01*
X96524819Y-90485332D02*
X96524819Y-89866285D01*
X96524819Y-89866285D02*
X96905771Y-90199618D01*
X96905771Y-90199618D02*
X96905771Y-90056761D01*
X96905771Y-90056761D02*
X96953390Y-89961523D01*
X96953390Y-89961523D02*
X97001009Y-89913904D01*
X97001009Y-89913904D02*
X97096247Y-89866285D01*
X97096247Y-89866285D02*
X97334342Y-89866285D01*
X97334342Y-89866285D02*
X97429580Y-89913904D01*
X97429580Y-89913904D02*
X97477200Y-89961523D01*
X97477200Y-89961523D02*
X97524819Y-90056761D01*
X97524819Y-90056761D02*
X97524819Y-90342475D01*
X97524819Y-90342475D02*
X97477200Y-90437713D01*
X97477200Y-90437713D02*
X97429580Y-90485332D01*
X117336819Y-90616666D02*
X116860628Y-90949999D01*
X117336819Y-91188094D02*
X116336819Y-91188094D01*
X116336819Y-91188094D02*
X116336819Y-90807142D01*
X116336819Y-90807142D02*
X116384438Y-90711904D01*
X116384438Y-90711904D02*
X116432057Y-90664285D01*
X116432057Y-90664285D02*
X116527295Y-90616666D01*
X116527295Y-90616666D02*
X116670152Y-90616666D01*
X116670152Y-90616666D02*
X116765390Y-90664285D01*
X116765390Y-90664285D02*
X116813009Y-90711904D01*
X116813009Y-90711904D02*
X116860628Y-90807142D01*
X116860628Y-90807142D02*
X116860628Y-91188094D01*
X116432057Y-90235713D02*
X116384438Y-90188094D01*
X116384438Y-90188094D02*
X116336819Y-90092856D01*
X116336819Y-90092856D02*
X116336819Y-89854761D01*
X116336819Y-89854761D02*
X116384438Y-89759523D01*
X116384438Y-89759523D02*
X116432057Y-89711904D01*
X116432057Y-89711904D02*
X116527295Y-89664285D01*
X116527295Y-89664285D02*
X116622533Y-89664285D01*
X116622533Y-89664285D02*
X116765390Y-89711904D01*
X116765390Y-89711904D02*
X117336819Y-90283332D01*
X117336819Y-90283332D02*
X117336819Y-89664285D01*
X123432819Y-90616666D02*
X122956628Y-90949999D01*
X123432819Y-91188094D02*
X122432819Y-91188094D01*
X122432819Y-91188094D02*
X122432819Y-90807142D01*
X122432819Y-90807142D02*
X122480438Y-90711904D01*
X122480438Y-90711904D02*
X122528057Y-90664285D01*
X122528057Y-90664285D02*
X122623295Y-90616666D01*
X122623295Y-90616666D02*
X122766152Y-90616666D01*
X122766152Y-90616666D02*
X122861390Y-90664285D01*
X122861390Y-90664285D02*
X122909009Y-90711904D01*
X122909009Y-90711904D02*
X122956628Y-90807142D01*
X122956628Y-90807142D02*
X122956628Y-91188094D01*
X123432819Y-89664285D02*
X123432819Y-90235713D01*
X123432819Y-89949999D02*
X122432819Y-89949999D01*
X122432819Y-89949999D02*
X122575676Y-90045237D01*
X122575676Y-90045237D02*
X122670914Y-90140475D01*
X122670914Y-90140475D02*
X122718533Y-90235713D01*
X83288952Y-106350819D02*
X83288952Y-105350819D01*
X83288952Y-105350819D02*
X83669904Y-105350819D01*
X83669904Y-105350819D02*
X83765142Y-105398438D01*
X83765142Y-105398438D02*
X83812761Y-105446057D01*
X83812761Y-105446057D02*
X83860380Y-105541295D01*
X83860380Y-105541295D02*
X83860380Y-105684152D01*
X83860380Y-105684152D02*
X83812761Y-105779390D01*
X83812761Y-105779390D02*
X83765142Y-105827009D01*
X83765142Y-105827009D02*
X83669904Y-105874628D01*
X83669904Y-105874628D02*
X83288952Y-105874628D01*
X84288952Y-105350819D02*
X84288952Y-106160342D01*
X84288952Y-106160342D02*
X84336571Y-106255580D01*
X84336571Y-106255580D02*
X84384190Y-106303200D01*
X84384190Y-106303200D02*
X84479428Y-106350819D01*
X84479428Y-106350819D02*
X84669904Y-106350819D01*
X84669904Y-106350819D02*
X84765142Y-106303200D01*
X84765142Y-106303200D02*
X84812761Y-106255580D01*
X84812761Y-106255580D02*
X84860380Y-106160342D01*
X84860380Y-106160342D02*
X84860380Y-105350819D01*
X85812761Y-106350819D02*
X85336571Y-106350819D01*
X85336571Y-106350819D02*
X85336571Y-105350819D01*
X86622285Y-106350819D02*
X86146095Y-106350819D01*
X86146095Y-106350819D02*
X86146095Y-105350819D01*
X86955619Y-105350819D02*
X86955619Y-106160342D01*
X86955619Y-106160342D02*
X87003238Y-106255580D01*
X87003238Y-106255580D02*
X87050857Y-106303200D01*
X87050857Y-106303200D02*
X87146095Y-106350819D01*
X87146095Y-106350819D02*
X87336571Y-106350819D01*
X87336571Y-106350819D02*
X87431809Y-106303200D01*
X87431809Y-106303200D02*
X87479428Y-106255580D01*
X87479428Y-106255580D02*
X87527047Y-106160342D01*
X87527047Y-106160342D02*
X87527047Y-105350819D01*
X88003238Y-106350819D02*
X88003238Y-105350819D01*
X88003238Y-105350819D02*
X88384190Y-105350819D01*
X88384190Y-105350819D02*
X88479428Y-105398438D01*
X88479428Y-105398438D02*
X88527047Y-105446057D01*
X88527047Y-105446057D02*
X88574666Y-105541295D01*
X88574666Y-105541295D02*
X88574666Y-105684152D01*
X88574666Y-105684152D02*
X88527047Y-105779390D01*
X88527047Y-105779390D02*
X88479428Y-105827009D01*
X88479428Y-105827009D02*
X88384190Y-105874628D01*
X88384190Y-105874628D02*
X88003238Y-105874628D01*
X89622286Y-105350819D02*
X89955619Y-106350819D01*
X89955619Y-106350819D02*
X90288952Y-105350819D01*
X90812762Y-105350819D02*
X91003238Y-105350819D01*
X91003238Y-105350819D02*
X91098476Y-105398438D01*
X91098476Y-105398438D02*
X91193714Y-105493676D01*
X91193714Y-105493676D02*
X91241333Y-105684152D01*
X91241333Y-105684152D02*
X91241333Y-106017485D01*
X91241333Y-106017485D02*
X91193714Y-106207961D01*
X91193714Y-106207961D02*
X91098476Y-106303200D01*
X91098476Y-106303200D02*
X91003238Y-106350819D01*
X91003238Y-106350819D02*
X90812762Y-106350819D01*
X90812762Y-106350819D02*
X90717524Y-106303200D01*
X90717524Y-106303200D02*
X90622286Y-106207961D01*
X90622286Y-106207961D02*
X90574667Y-106017485D01*
X90574667Y-106017485D02*
X90574667Y-105684152D01*
X90574667Y-105684152D02*
X90622286Y-105493676D01*
X90622286Y-105493676D02*
X90717524Y-105398438D01*
X90717524Y-105398438D02*
X90812762Y-105350819D01*
X92146095Y-106350819D02*
X91669905Y-106350819D01*
X91669905Y-106350819D02*
X91669905Y-105350819D01*
X92336572Y-105350819D02*
X92908000Y-105350819D01*
X92622286Y-106350819D02*
X92622286Y-105350819D01*
X93193715Y-106065104D02*
X93669905Y-106065104D01*
X93098477Y-106350819D02*
X93431810Y-105350819D01*
X93431810Y-105350819D02*
X93765143Y-106350819D01*
X94622286Y-105398438D02*
X94527048Y-105350819D01*
X94527048Y-105350819D02*
X94384191Y-105350819D01*
X94384191Y-105350819D02*
X94241334Y-105398438D01*
X94241334Y-105398438D02*
X94146096Y-105493676D01*
X94146096Y-105493676D02*
X94098477Y-105588914D01*
X94098477Y-105588914D02*
X94050858Y-105779390D01*
X94050858Y-105779390D02*
X94050858Y-105922247D01*
X94050858Y-105922247D02*
X94098477Y-106112723D01*
X94098477Y-106112723D02*
X94146096Y-106207961D01*
X94146096Y-106207961D02*
X94241334Y-106303200D01*
X94241334Y-106303200D02*
X94384191Y-106350819D01*
X94384191Y-106350819D02*
X94479429Y-106350819D01*
X94479429Y-106350819D02*
X94622286Y-106303200D01*
X94622286Y-106303200D02*
X94669905Y-106255580D01*
X94669905Y-106255580D02*
X94669905Y-105922247D01*
X94669905Y-105922247D02*
X94479429Y-105922247D01*
X95098477Y-105827009D02*
X95431810Y-105827009D01*
X95574667Y-106350819D02*
X95098477Y-106350819D01*
X95098477Y-106350819D02*
X95098477Y-105350819D01*
X95098477Y-105350819D02*
X95574667Y-105350819D01*
X85417714Y-107285164D02*
X85060571Y-107285164D01*
X85060571Y-107285164D02*
X85024857Y-107642307D01*
X85024857Y-107642307D02*
X85060571Y-107606592D01*
X85060571Y-107606592D02*
X85132000Y-107570878D01*
X85132000Y-107570878D02*
X85310571Y-107570878D01*
X85310571Y-107570878D02*
X85382000Y-107606592D01*
X85382000Y-107606592D02*
X85417714Y-107642307D01*
X85417714Y-107642307D02*
X85453428Y-107713735D01*
X85453428Y-107713735D02*
X85453428Y-107892307D01*
X85453428Y-107892307D02*
X85417714Y-107963735D01*
X85417714Y-107963735D02*
X85382000Y-107999450D01*
X85382000Y-107999450D02*
X85310571Y-108035164D01*
X85310571Y-108035164D02*
X85132000Y-108035164D01*
X85132000Y-108035164D02*
X85060571Y-107999450D01*
X85060571Y-107999450D02*
X85024857Y-107963735D01*
X85703428Y-107535164D02*
X85882000Y-108035164D01*
X85882000Y-108035164D02*
X86060571Y-107535164D01*
X86489143Y-107285164D02*
X86560572Y-107285164D01*
X86560572Y-107285164D02*
X86632000Y-107320878D01*
X86632000Y-107320878D02*
X86667715Y-107356592D01*
X86667715Y-107356592D02*
X86703429Y-107428021D01*
X86703429Y-107428021D02*
X86739143Y-107570878D01*
X86739143Y-107570878D02*
X86739143Y-107749450D01*
X86739143Y-107749450D02*
X86703429Y-107892307D01*
X86703429Y-107892307D02*
X86667715Y-107963735D01*
X86667715Y-107963735D02*
X86632000Y-107999450D01*
X86632000Y-107999450D02*
X86560572Y-108035164D01*
X86560572Y-108035164D02*
X86489143Y-108035164D01*
X86489143Y-108035164D02*
X86417715Y-107999450D01*
X86417715Y-107999450D02*
X86382000Y-107963735D01*
X86382000Y-107963735D02*
X86346286Y-107892307D01*
X86346286Y-107892307D02*
X86310572Y-107749450D01*
X86310572Y-107749450D02*
X86310572Y-107570878D01*
X86310572Y-107570878D02*
X86346286Y-107428021D01*
X86346286Y-107428021D02*
X86382000Y-107356592D01*
X86382000Y-107356592D02*
X86417715Y-107320878D01*
X86417715Y-107320878D02*
X86489143Y-107285164D01*
X92101142Y-107285164D02*
X92565428Y-107285164D01*
X92565428Y-107285164D02*
X92315428Y-107570878D01*
X92315428Y-107570878D02*
X92422571Y-107570878D01*
X92422571Y-107570878D02*
X92494000Y-107606592D01*
X92494000Y-107606592D02*
X92529714Y-107642307D01*
X92529714Y-107642307D02*
X92565428Y-107713735D01*
X92565428Y-107713735D02*
X92565428Y-107892307D01*
X92565428Y-107892307D02*
X92529714Y-107963735D01*
X92529714Y-107963735D02*
X92494000Y-107999450D01*
X92494000Y-107999450D02*
X92422571Y-108035164D01*
X92422571Y-108035164D02*
X92208285Y-108035164D01*
X92208285Y-108035164D02*
X92136857Y-107999450D01*
X92136857Y-107999450D02*
X92101142Y-107963735D01*
X92815428Y-107535164D02*
X92994000Y-108035164D01*
X92994000Y-108035164D02*
X93172571Y-107535164D01*
X93386857Y-107285164D02*
X93851143Y-107285164D01*
X93851143Y-107285164D02*
X93601143Y-107570878D01*
X93601143Y-107570878D02*
X93708286Y-107570878D01*
X93708286Y-107570878D02*
X93779715Y-107606592D01*
X93779715Y-107606592D02*
X93815429Y-107642307D01*
X93815429Y-107642307D02*
X93851143Y-107713735D01*
X93851143Y-107713735D02*
X93851143Y-107892307D01*
X93851143Y-107892307D02*
X93815429Y-107963735D01*
X93815429Y-107963735D02*
X93779715Y-107999450D01*
X93779715Y-107999450D02*
X93708286Y-108035164D01*
X93708286Y-108035164D02*
X93494000Y-108035164D01*
X93494000Y-108035164D02*
X93422572Y-107999450D01*
X93422572Y-107999450D02*
X93386857Y-107963735D01*
X78660666Y-88559819D02*
X78660666Y-89274104D01*
X78660666Y-89274104D02*
X78613047Y-89416961D01*
X78613047Y-89416961D02*
X78517809Y-89512200D01*
X78517809Y-89512200D02*
X78374952Y-89559819D01*
X78374952Y-89559819D02*
X78279714Y-89559819D01*
X79089238Y-88655057D02*
X79136857Y-88607438D01*
X79136857Y-88607438D02*
X79232095Y-88559819D01*
X79232095Y-88559819D02*
X79470190Y-88559819D01*
X79470190Y-88559819D02*
X79565428Y-88607438D01*
X79565428Y-88607438D02*
X79613047Y-88655057D01*
X79613047Y-88655057D02*
X79660666Y-88750295D01*
X79660666Y-88750295D02*
X79660666Y-88845533D01*
X79660666Y-88845533D02*
X79613047Y-88988390D01*
X79613047Y-88988390D02*
X79041619Y-89559819D01*
X79041619Y-89559819D02*
X79660666Y-89559819D01*
D11*
%TO.C,BACK*%
X85856000Y-98274000D02*
X85856000Y-99774000D01*
X87106000Y-102274000D02*
X91606000Y-102274000D01*
X91606000Y-95774000D02*
X87106000Y-95774000D01*
X92856000Y-99774000D02*
X92856000Y-98274000D01*
%TO.C,SW3*%
X101350000Y-105640000D02*
X101350000Y-107140000D01*
X102600000Y-109640000D02*
X107100000Y-109640000D01*
X107100000Y-103140000D02*
X102600000Y-103140000D01*
X108350000Y-107140000D02*
X108350000Y-105640000D01*
%TO.C,UP*%
X101350000Y-90654000D02*
X101350000Y-92154000D01*
X102600000Y-94654000D02*
X107100000Y-94654000D01*
X107100000Y-88154000D02*
X102600000Y-88154000D01*
X108350000Y-92154000D02*
X108350000Y-90654000D01*
%TO.C,SELECT*%
X117352000Y-98202000D02*
X117352000Y-99702000D01*
X118602000Y-102202000D02*
X123102000Y-102202000D01*
X123102000Y-95702000D02*
X118602000Y-95702000D01*
X124352000Y-99702000D02*
X124352000Y-98202000D01*
%TO.C,R4*%
X90318000Y-89976936D02*
X90318000Y-91431064D01*
X88498000Y-89976936D02*
X88498000Y-91431064D01*
%TO.C,R3*%
X96160000Y-89924936D02*
X96160000Y-91379064D01*
X94340000Y-89924936D02*
X94340000Y-91379064D01*
%TO.C,R2*%
X115972000Y-89722936D02*
X115972000Y-91177064D01*
X114152000Y-89722936D02*
X114152000Y-91177064D01*
%TO.C,R1*%
X122068000Y-89722936D02*
X122068000Y-91177064D01*
X120248000Y-89722936D02*
X120248000Y-91177064D01*
%TO.C,PULLUP VOLTAGE*%
X87358000Y-107996000D02*
X87358000Y-107396000D01*
X88008000Y-106696000D02*
X90808000Y-106696000D01*
X90808000Y-108696000D02*
X88008000Y-108696000D01*
X91458000Y-107396000D02*
X91458000Y-107996000D01*
X87358000Y-107396000D02*
G75*
G02*
X88058000Y-106696000I699999J1D01*
G01*
X88058000Y-108696000D02*
G75*
G02*
X87358000Y-107996000I-1J699999D01*
G01*
X90758000Y-106696000D02*
G75*
G02*
X91458000Y-107396000I0J-700000D01*
G01*
X91458000Y-107996000D02*
G75*
G02*
X90758000Y-108696000I-700000J0D01*
G01*
%TO.C,J2*%
X77664000Y-90105000D02*
X78994000Y-90105000D01*
X77664000Y-91435000D02*
X77664000Y-90105000D01*
X77664000Y-92705000D02*
X77664000Y-108005000D01*
X77664000Y-92705000D02*
X80324000Y-92705000D01*
X77664000Y-108005000D02*
X80324000Y-108005000D01*
X80324000Y-92705000D02*
X80324000Y-108005000D01*
%TD*%
M02*
