%TF.GenerationSoftware,KiCad,Pcbnew,8.0.3*%
%TF.CreationDate,2024-06-12T19:29:14-06:00*%
%TF.ProjectId,CutMachine_PCB,4375744d-6163-4686-996e-655f5043422e,rev?*%
%TF.SameCoordinates,Original*%
%TF.FileFunction,Copper,L1,Top*%
%TF.FilePolarity,Positive*%
%FSLAX46Y46*%
G04 Gerber Fmt 4.6, Leading zero omitted, Abs format (unit mm)*
G04 Created by KiCad (PCBNEW 8.0.3) date 2024-06-12 19:29:14*
%MOMM*%
%LPD*%
G01*
G04 APERTURE LIST*
G04 Aperture macros list*
%AMRoundRect*
0 Rectangle with rounded corners*
0 $1 Rounding radius*
0 $2 $3 $4 $5 $6 $7 $8 $9 X,Y pos of 4 corners*
0 Add a 4 corners polygon primitive as box body*
4,1,4,$2,$3,$4,$5,$6,$7,$8,$9,$2,$3,0*
0 Add four circle primitives for the rounded corners*
1,1,$1+$1,$2,$3*
1,1,$1+$1,$4,$5*
1,1,$1+$1,$6,$7*
1,1,$1+$1,$8,$9*
0 Add four rect primitives between the rounded corners*
20,1,$1+$1,$2,$3,$4,$5,0*
20,1,$1+$1,$4,$5,$6,$7,0*
20,1,$1+$1,$6,$7,$8,$9,0*
20,1,$1+$1,$8,$9,$2,$3,0*%
%AMFreePoly0*
4,1,19,0.550000,-0.750000,0.000000,-0.750000,0.000000,-0.744911,-0.071157,-0.744911,-0.207708,-0.704816,-0.327430,-0.627875,-0.420627,-0.520320,-0.479746,-0.390866,-0.500000,-0.250000,-0.500000,0.250000,-0.479746,0.390866,-0.420627,0.520320,-0.327430,0.627875,-0.207708,0.704816,-0.071157,0.744911,0.000000,0.744911,0.000000,0.750000,0.550000,0.750000,0.550000,-0.750000,0.550000,-0.750000,
$1*%
%AMFreePoly1*
4,1,19,0.000000,0.744911,0.071157,0.744911,0.207708,0.704816,0.327430,0.627875,0.420627,0.520320,0.479746,0.390866,0.500000,0.250000,0.500000,-0.250000,0.479746,-0.390866,0.420627,-0.520320,0.327430,-0.627875,0.207708,-0.704816,0.071157,-0.744911,0.000000,-0.744911,0.000000,-0.750000,-0.550000,-0.750000,-0.550000,0.750000,0.000000,0.750000,0.000000,0.744911,0.000000,0.744911,
$1*%
G04 Aperture macros list end*
%TA.AperFunction,ComponentPad*%
%ADD10C,2.000000*%
%TD*%
%TA.AperFunction,SMDPad,CuDef*%
%ADD11RoundRect,0.250000X-0.625000X0.400000X-0.625000X-0.400000X0.625000X-0.400000X0.625000X0.400000X0*%
%TD*%
%TA.AperFunction,SMDPad,CuDef*%
%ADD12FreePoly0,0.000000*%
%TD*%
%TA.AperFunction,SMDPad,CuDef*%
%ADD13R,1.000000X1.500000*%
%TD*%
%TA.AperFunction,SMDPad,CuDef*%
%ADD14FreePoly1,0.000000*%
%TD*%
%TA.AperFunction,ComponentPad*%
%ADD15R,1.700000X1.700000*%
%TD*%
%TA.AperFunction,ComponentPad*%
%ADD16O,1.700000X1.700000*%
%TD*%
%TA.AperFunction,Conductor*%
%ADD17C,0.500000*%
%TD*%
%TA.AperFunction,Conductor*%
%ADD18C,0.200000*%
%TD*%
G04 APERTURE END LIST*
D10*
%TO.P,BACK,1,1*%
%TO.N,Net-(J2-Pin_5)*%
X86106000Y-96774000D03*
X92606000Y-96774000D03*
%TO.P,BACK,2,2*%
%TO.N,GND*%
X86106000Y-101274000D03*
X92606000Y-101274000D03*
%TD*%
%TO.P,SW3,1,1*%
%TO.N,Net-(J2-Pin_4)*%
X101600000Y-104140000D03*
X108100000Y-104140000D03*
%TO.P,SW3,2,2*%
%TO.N,GND*%
X101600000Y-108640000D03*
X108100000Y-108640000D03*
%TD*%
%TO.P,UP,1,1*%
%TO.N,Net-(J2-Pin_3)*%
X101600000Y-89154000D03*
X108100000Y-89154000D03*
%TO.P,UP,2,2*%
%TO.N,GND*%
X101600000Y-93654000D03*
X108100000Y-93654000D03*
%TD*%
%TO.P,SELECT,1,1*%
%TO.N,Net-(J2-Pin_2)*%
X117602000Y-96702000D03*
X124102000Y-96702000D03*
%TO.P,SELECT,2,2*%
%TO.N,GND*%
X117602000Y-101202000D03*
X124102000Y-101202000D03*
%TD*%
D11*
%TO.P,R4,1*%
%TO.N,Net-(J2-Pin_5)*%
X89408000Y-89154000D03*
%TO.P,R4,2*%
%TO.N,Net-(JP1-C)*%
X89408000Y-92254000D03*
%TD*%
%TO.P,R3,1*%
%TO.N,Net-(J2-Pin_4)*%
X95250000Y-89102000D03*
%TO.P,R3,2*%
%TO.N,Net-(JP1-C)*%
X95250000Y-92202000D03*
%TD*%
%TO.P,R2,1*%
%TO.N,Net-(J2-Pin_3)*%
X115062000Y-88900000D03*
%TO.P,R2,2*%
%TO.N,Net-(JP1-C)*%
X115062000Y-92000000D03*
%TD*%
%TO.P,R1,1*%
%TO.N,Net-(J2-Pin_2)*%
X121158000Y-88900000D03*
%TO.P,R1,2*%
%TO.N,Net-(JP1-C)*%
X121158000Y-92000000D03*
%TD*%
D12*
%TO.P,PULLUP VOLTAGE,1,A*%
%TO.N,+5V*%
X88108000Y-107696000D03*
D13*
%TO.P,PULLUP VOLTAGE,2,C*%
%TO.N,Net-(JP1-C)*%
X89408000Y-107696000D03*
D14*
%TO.P,PULLUP VOLTAGE,3,B*%
%TO.N,+3.3V*%
X90708000Y-107696000D03*
%TD*%
D15*
%TO.P,J2,1,Pin_1*%
%TO.N,GND*%
X78994000Y-91435000D03*
D16*
%TO.P,J2,2,Pin_2*%
%TO.N,Net-(J2-Pin_2)*%
X78994000Y-93975000D03*
%TO.P,J2,3,Pin_3*%
%TO.N,Net-(J2-Pin_3)*%
X78994000Y-96515000D03*
%TO.P,J2,4,Pin_4*%
%TO.N,Net-(J2-Pin_4)*%
X78994000Y-99055000D03*
%TO.P,J2,5,Pin_5*%
%TO.N,Net-(J2-Pin_5)*%
X78994000Y-101595000D03*
%TO.P,J2,6,Pin_6*%
%TO.N,+3.3V*%
X78994000Y-104135000D03*
%TO.P,J2,7,Pin_7*%
%TO.N,+5V*%
X78994000Y-106675000D03*
%TD*%
D17*
%TO.N,Net-(JP1-C)*%
X115062000Y-101600000D02*
X115062000Y-92000000D01*
X110744000Y-105918000D02*
X115062000Y-101600000D01*
X97028000Y-105918000D02*
X110744000Y-105918000D01*
X95250000Y-107696000D02*
X97028000Y-105918000D01*
X95250000Y-107696000D02*
X95250000Y-92202000D01*
X93726000Y-109220000D02*
X95250000Y-107696000D01*
X89408000Y-108646000D02*
X89982000Y-109220000D01*
X89982000Y-109220000D02*
X93726000Y-109220000D01*
X89408000Y-107696000D02*
X89408000Y-108646000D01*
%TO.N,+5V*%
X78994000Y-106675000D02*
X87087000Y-106675000D01*
X87087000Y-106675000D02*
X88108000Y-107696000D01*
%TO.N,+3.3V*%
X89657000Y-104135000D02*
X78994000Y-104135000D01*
X90708000Y-105186000D02*
X89657000Y-104135000D01*
X90708000Y-107696000D02*
X90708000Y-105186000D01*
%TO.N,Net-(J2-Pin_5)*%
X81285000Y-101595000D02*
X86106000Y-96774000D01*
X78994000Y-101595000D02*
X81285000Y-101595000D01*
%TO.N,Net-(J2-Pin_4)*%
X98044000Y-100584000D02*
X101600000Y-104140000D01*
X98044000Y-91896000D02*
X98044000Y-100584000D01*
X95250000Y-89102000D02*
X98044000Y-91896000D01*
%TO.N,Net-(J2-Pin_2)*%
X124102000Y-91844000D02*
X121158000Y-88900000D01*
X124102000Y-96702000D02*
X124102000Y-91844000D01*
%TO.N,Net-(J2-Pin_5)*%
X86106000Y-96774000D02*
X86106000Y-92456000D01*
X86106000Y-92456000D02*
X89408000Y-89154000D01*
%TO.N,Net-(J2-Pin_3)*%
X108458000Y-88900000D02*
X115062000Y-88900000D01*
D18*
X108204000Y-89154000D02*
X108458000Y-88900000D01*
X108100000Y-89154000D02*
X108204000Y-89154000D01*
D17*
%TO.N,Net-(JP1-C)*%
X115062000Y-92000000D02*
X121158000Y-92000000D01*
D18*
X95198000Y-92254000D02*
X95250000Y-92202000D01*
X89408000Y-92254000D02*
X95198000Y-92254000D01*
D17*
%TO.N,Net-(J2-Pin_4)*%
X101600000Y-104140000D02*
X108100000Y-104140000D01*
%TO.N,Net-(J2-Pin_2)*%
X117602000Y-96702000D02*
X124102000Y-96702000D01*
%TO.N,Net-(J2-Pin_3)*%
X101600000Y-89154000D02*
X108100000Y-89154000D01*
%TO.N,Net-(J2-Pin_5)*%
X86106000Y-96774000D02*
X92606000Y-96774000D01*
%TD*%
M02*
